<svg xmlns="http://www.w3.org/2000/svg" xmlns:xlink="http://www.w3.org/1999/xlink">
  <defs/>
  <g>
    <path stroke="none" fill="#EF975C" d="M200 162 L200 160 270 160 270 162 200 162"/>
    <path stroke="none" fill="#E86A17" d="M200 162 L270 162 270 166 269.7 166 Q266.5 166 264.25 168.25 262 170.5 262 173.7 262 176.9 264.25 179.15 266.5 181.4 269.7 181.4 L270 181.4 270 197 Q261.55 195.25 253.2 194.35 L254.4 193.4 Q256 191.8 256 189.5 256 187.25 254.4 185.6 252.75 184 250.5 184 248.2 184 246.6 185.6 245 187.25 245 189.5 245 191.8 246.6 193.4 L247 193.75 Q223.2 192 200 197 L200 181.4 Q203 181.3 205.15 179.15 207.4 176.9 207.4 173.7 207.4 170.5 205.15 168.25 203 166.1 200 166 L200 162 M238.5 177 Q240.8 177 242.45 175.4 244 173.8 244 171.5 244 169.2 242.45 167.55 240.8 166 238.5 166 236.2 166 234.6 167.55 233 169.2 233 171.5 233 173.8 234.6 175.4 236.2 177 238.5 177 M221.85 187.85 Q223 186.7 223 185 223 183.35 221.85 182.15 220.65 181 219 181 217.3 181 216.2 182.15 215 183.35 215 185 215 186.7 216.2 187.85 217.3 189 219 189 220.65 189 221.85 187.85"/>
    <path stroke="none" fill="#FCA66C" d="M221.85 187.85 Q220.65 189 219 189 217.3 189 216.2 187.85 215 186.7 215 185 215 183.35 216.2 182.15 217.3 181 219 181 220.65 181 221.85 182.15 223 183.35 223 185 223 186.7 221.85 187.85 M270 166 L270 181.4 269.7 181.4 Q266.5 181.4 264.25 179.15 262 176.9 262 173.7 262 170.5 264.25 168.25 266.5 166 269.7 166 L270 166 M200 181.4 L200 166 Q203 166.1 205.15 168.25 207.4 170.5 207.4 173.7 207.4 176.9 205.15 179.15 203 181.3 200 181.4 M238.5 177 Q236.2 177 234.6 175.4 233 173.8 233 171.5 233 169.2 234.6 167.55 236.2 166 238.5 166 240.8 166 242.45 167.55 244 169.2 244 171.5 244 173.8 242.45 175.4 240.8 177 238.5 177 M247 193.75 L246.6 193.4 Q245 191.8 245 189.5 245 187.25 246.6 185.6 248.2 184 250.5 184 252.75 184 254.4 185.6 256 187.25 256 189.5 256 191.8 254.4 193.4 L253.2 194.35 247 193.75"/>
    <path stroke="none" fill="#E1D7BF" d="M247 193.75 L253.2 194.35 Q261.55 195.25 270 197 L270 200 200 200 200 197 Q223.2 192 247 193.75"/>
    <path stroke="none" fill="#EF975C" d="M280 162 L280 160 340.35 160 Q347.95 160 349.6 166 L350 169.2 350 169.65 349.85 169.65 Q349.6 167.55 348.8 166.05 346.6 162 340.35 162 L280 162"/>
    <path stroke="none" fill="#E86A17" d="M280 162 L340.35 162 Q346.6 162 348.8 166.05 346.15 166.35 344.25 168.25 342 170.5 342 173.65 342 176.85 344.25 179.1 346.5 181.35 349.7 181.35 L350 181.35 350 190.9 349.8 193 349.75 193.2 347.65 195.3 Q345.55 197.35 339.15 197 L280 197 280 181.35 Q283 181.25 285.15 179.1 287.4 176.85 287.4 173.65 287.4 170.5 285.15 168.25 283 166.1 280 166 L280 162 M299 188.9 Q300.65 188.9 301.85 187.75 303 186.6 303 184.95 303 183.3 301.85 182.1 300.65 180.95 299 180.95 297.3 180.95 296.2 182.1 295 183.3 295 184.95 295 186.6 296.2 187.75 297.3 188.9 299 188.9 M326.6 185.55 Q325 187.15 325 189.4 325 191.7 326.6 193.3 328.2 194.9 330.5 194.9 332.75 194.9 334.4 193.3 336 191.7 336 189.4 336 187.15 334.4 185.55 332.75 183.95 330.5 183.95 328.2 183.95 326.6 185.55 M324 171.5 Q324 169.2 322.45 167.55 320.8 166 318.5 166 316.2 166 314.6 167.55 313 169.2 313 171.5 313 173.75 314.6 175.35 316.2 176.95 318.5 176.95 320.8 176.95 322.45 175.35 324 173.75 324 171.5"/>
    <path stroke="none" fill="#FCA66C" d="M324 171.5 Q324 173.75 322.45 175.35 320.8 176.95 318.5 176.95 316.2 176.95 314.6 175.35 313 173.75 313 171.5 313 169.2 314.6 167.55 316.2 166 318.5 166 320.8 166 322.45 167.55 324 169.2 324 171.5 M350 170.3 L350 181.35 349.7 181.35 Q346.5 181.35 344.25 179.1 342 176.85 342 173.65 342 170.5 344.25 168.25 346.15 166.35 348.8 166.05 349.6 167.55 349.85 169.65 L350 170.3 M280 181.35 L280 166 Q283 166.1 285.15 168.25 287.4 170.5 287.4 173.65 287.4 176.85 285.15 179.1 283 181.25 280 181.35 M326.6 185.55 Q328.2 183.95 330.5 183.95 332.75 183.95 334.4 185.55 336 187.15 336 189.4 336 191.7 334.4 193.3 332.75 194.9 330.5 194.9 328.2 194.9 326.6 193.3 325 191.7 325 189.4 325 187.15 326.6 185.55 M299 188.9 Q297.3 188.9 296.2 187.75 295 186.6 295 184.95 295 183.3 296.2 182.1 297.3 180.95 299 180.95 300.65 180.95 301.85 182.1 303 183.3 303 184.95 303 186.6 301.85 187.75 300.65 188.9 299 188.9"/>
    <path stroke="none" fill="#E1D7BF" d="M349.75 193.2 L349.15 195.25 348.35 196.8 348.25 196.9 348.05 197.15 347.05 198.15 Q344.65 200 340.35 200 L280 200 280 197 339.15 197 Q345.55 197.35 347.65 195.3 L349.75 193.2"/>
    <path stroke="none" fill="#93DB24" d="M350 169.65 L350 170.3 349.85 169.65 350 169.65"/>
    <path stroke="none" fill="#EF975C" d="M40 169.65 L40 169.2 Q40.05 167.45 40.4 166.05 L40.4 166 Q42.05 160 49.65 160 L110 160 110 162 49.65 162 Q43.4 162 41.2 166.05 L41.2 166.15 Q40.4 167.6 40.15 169.65 L40 169.65"/>
    <path stroke="none" fill="#E86A17" d="M41.2 166.15 L41.2 166.05 Q43.4 162 49.65 162 L110 162 110 166 109.7 166 Q106.5 166 104.25 168.25 102 170.5 102 173.7 102 176.9 104.25 179.15 106.5 181.4 109.7 181.4 L110 181.4 110 197 50.85 197 Q44.45 197.35 42.35 195.3 L40.25 193.2 40.2 193 40 190.9 40 181.4 Q43 181.3 45.15 179.15 47.4 176.9 47.4 173.7 47.4 170.5 45.15 168.25 43.45 166.55 41.2 166.15 M61.85 182.15 Q60.65 181 59 181 57.3 181 56.2 182.15 55 183.35 55 185 55 186.7 56.2 187.85 57.3 189 59 189 60.65 189 61.85 187.85 63 186.7 63 185 63 183.35 61.85 182.15 M82.45 167.55 Q80.8 166 78.5 166 76.2 166 74.6 167.55 73 169.2 73 171.5 73 173.8 74.6 175.4 76.2 177 78.5 177 80.8 177 82.45 175.4 84 173.8 84 171.5 84 169.2 82.45 167.55 M96 189.5 Q96 187.25 94.4 185.6 92.75 184 90.5 184 88.2 184 86.6 185.6 85 187.25 85 189.5 85 191.8 86.6 193.4 88.2 195 90.5 195 92.75 195 94.4 193.4 96 191.8 96 189.5"/>
    <path stroke="none" fill="#FCA66C" d="M96 189.5 Q96 191.8 94.4 193.4 92.75 195 90.5 195 88.2 195 86.6 193.4 85 191.8 85 189.5 85 187.25 86.6 185.6 88.2 184 90.5 184 92.75 184 94.4 185.6 96 187.25 96 189.5 M40.15 169.65 Q40.4 167.6 41.2 166.15 43.45 166.55 45.15 168.25 47.4 170.5 47.4 173.7 47.4 176.9 45.15 179.15 43 181.3 40 181.4 L40 170.3 Q40 170 40.15 169.65 M110 166 L110 181.4 109.7 181.4 Q106.5 181.4 104.25 179.15 102 176.9 102 173.7 102 170.5 104.25 168.25 106.5 166 109.7 166 L110 166 M82.45 167.55 Q84 169.2 84 171.5 84 173.8 82.45 175.4 80.8 177 78.5 177 76.2 177 74.6 175.4 73 173.8 73 171.5 73 169.2 74.6 167.55 76.2 166 78.5 166 80.8 166 82.45 167.55 M61.85 182.15 Q63 183.35 63 185 63 186.7 61.85 187.85 60.65 189 59 189 57.3 189 56.2 187.85 55 186.7 55 185 55 183.35 56.2 182.15 57.3 181 59 181 60.65 181 61.85 182.15"/>
    <path stroke="none" fill="#93DB24" d="M40 169.65 L40.15 169.65 Q40 170 40 170.3 L40 169.65"/>
    <path stroke="none" fill="#E1D7BF" d="M110 197 L110 200 49.65 200 Q45.35 200 42.95 198.15 L41.95 197.15 41.75 196.9 41.65 196.8 40.85 195.25 40.25 193.2 42.35 195.3 Q44.45 197.35 50.85 197 L110 197"/>
    <path stroke="none" fill="#EF975C" d="M120 162 L120 160 190 160 190 162 120 162"/>
    <path stroke="none" fill="#E86A17" d="M120 162 L190 162 190 166 189.7 166 Q186.5 166 184.25 168.25 182 170.5 182 173.7 182 176.9 184.25 179.15 186.5 181.4 189.7 181.4 L190 181.4 190 197 120 197 120 181.4 Q123 181.3 125.15 179.15 127.4 176.9 127.4 173.7 127.4 170.5 125.15 168.25 123 166.1 120 166 L120 162 M139 189 Q140.65 189 141.85 187.85 143 186.7 143 185 143 183.35 141.85 182.15 140.65 181 139 181 137.3 181 136.2 182.15 135 183.35 135 185 135 186.7 136.2 187.85 137.3 189 139 189 M166.6 185.6 Q165 187.25 165 189.5 165 191.8 166.6 193.4 168.2 195 170.5 195 172.75 195 174.4 193.4 176 191.8 176 189.5 176 187.25 174.4 185.6 172.75 184 170.5 184 168.2 184 166.6 185.6 M162.45 175.4 Q164 173.8 164 171.5 164 169.2 162.45 167.55 160.8 166 158.5 166 156.2 166 154.6 167.55 153 169.2 153 171.5 153 173.8 154.6 175.4 156.2 177 158.5 177 160.8 177 162.45 175.4"/>
    <path stroke="none" fill="#FCA66C" d="M162.45 175.4 Q160.8 177 158.5 177 156.2 177 154.6 175.4 153 173.8 153 171.5 153 169.2 154.6 167.55 156.2 166 158.5 166 160.8 166 162.45 167.55 164 169.2 164 171.5 164 173.8 162.45 175.4 M190 166 L190 181.4 189.7 181.4 Q186.5 181.4 184.25 179.15 182 176.9 182 173.7 182 170.5 184.25 168.25 186.5 166 189.7 166 L190 166 M120 181.4 L120 166 Q123 166.1 125.15 168.25 127.4 170.5 127.4 173.7 127.4 176.9 125.15 179.15 123 181.3 120 181.4 M166.6 185.6 Q168.2 184 170.5 184 172.75 184 174.4 185.6 176 187.25 176 189.5 176 191.8 174.4 193.4 172.75 195 170.5 195 168.2 195 166.6 193.4 165 191.8 165 189.5 165 187.25 166.6 185.6 M139 189 Q137.3 189 136.2 187.85 135 186.7 135 185 135 183.35 136.2 182.15 137.3 181 139 181 140.65 181 141.85 182.15 143 183.35 143 185 143 186.7 141.85 187.85 140.65 189 139 189"/>
    <path stroke="none" fill="#E1D7BF" d="M190 197 L190 200 120 200 120 197 190 197"/>
    <path stroke="none" fill="#E86A17" d="M120 246 L120 242 190 242 190 246 189.7 246 Q186.5 246 184.25 248.25 182 250.5 182 253.7 182 256.9 184.25 259.15 186.5 261.4 189.7 261.4 L190 261.4 190 273 174.8 273 Q176 271.5 176 269.5 176 267.25 174.4 265.6 172.75 264 170.5 264 168.2 264 166.6 265.6 165 267.25 165 269.5 165 271.5 166.25 273 L120 273 120 261.4 Q123 261.3 125.15 259.15 127.4 256.9 127.4 253.7 127.4 250.5 125.15 248.25 123 246.1 120 246 M154.6 247.55 Q153 249.2 153 251.5 153 253.8 154.6 255.4 156.2 257 158.5 257 160.8 257 162.45 255.4 164 253.8 164 251.5 164 249.2 162.45 247.55 160.8 246 158.5 246 156.2 246 154.6 247.55 M139 261 Q137.3 261 136.2 262.15 135 263.35 135 265 135 266.7 136.2 267.85 137.3 269 139 269 140.65 269 141.85 267.85 143 266.7 143 265 143 263.35 141.85 262.15 140.65 261 139 261"/>
    <path stroke="none" fill="#FCA66C" d="M139 261 Q140.65 261 141.85 262.15 143 263.35 143 265 143 266.7 141.85 267.85 140.65 269 139 269 137.3 269 136.2 267.85 135 266.7 135 265 135 263.35 136.2 262.15 137.3 261 139 261 M120 261.4 L120 246 Q123 246.1 125.15 248.25 127.4 250.5 127.4 253.7 127.4 256.9 125.15 259.15 123 261.3 120 261.4 M190 246 L190 261.4 189.7 261.4 Q186.5 261.4 184.25 259.15 182 256.9 182 253.7 182 250.5 184.25 248.25 186.5 246 189.7 246 L190 246 M154.6 247.55 Q156.2 246 158.5 246 160.8 246 162.45 247.55 164 249.2 164 251.5 164 253.8 162.45 255.4 160.8 257 158.5 257 156.2 257 154.6 255.4 153 253.8 153 251.5 153 249.2 154.6 247.55 M166.25 273 Q165 271.5 165 269.5 165 267.25 166.6 265.6 168.2 264 170.5 264 172.75 264 174.4 265.6 176 267.25 176 269.5 176 271.5 174.8 273 L166.25 273"/>
    <path stroke="none" fill="#EF975C" d="M120 242 L120 240 190 240 190 242 120 242"/>
    <path stroke="none" fill="#E1D7BF" d="M190 273 L190 280 120 280 120 273 166.25 273 174.8 273 190 273"/>
    <path stroke="none" fill="#E86A17" d="M280 246 L280 242 340.35 242 Q346.6 242 348.8 246.05 346.15 246.35 344.25 248.25 342 250.5 342 253.65 342 256.85 344.25 259.1 346.5 261.35 349.7 261.35 L350 261.35 350 270.9 349.8 273 349.75 273.2 349.15 275.25 348.35 276.8 348.25 276.9 348.05 277.15 347.05 278.15 346.55 278.5 345.9 278.9 331.5 276.9 330.45 276.8 323.45 275.75 Q309.6 273.05 280 273 L280 261.35 Q283 261.25 285.15 259.1 287.4 256.85 287.4 253.65 287.4 250.5 285.15 248.25 283 246.1 280 246 M313 251.5 Q313 253.75 314.6 255.35 316.2 256.95 318.5 256.95 320.8 256.95 322.45 255.35 324 253.75 324 251.5 324 249.2 322.45 247.55 320.8 246 318.5 246 316.2 246 314.6 247.55 313 249.2 313 251.5 M299 260.95 Q297.3 260.95 296.2 262.1 295 263.3 295 264.95 295 266.6 296.2 267.75 297.3 268.9 299 268.9 300.65 268.9 301.85 267.75 303 266.6 303 264.95 303 263.3 301.85 262.1 300.65 260.95 299 260.95 M336 269.4 Q336 267.15 334.4 265.55 332.75 263.95 330.5 263.95 328.2 263.95 326.6 265.55 325 267.15 325 269.4 325 271.7 326.6 273.3 328.2 274.9 330.5 274.9 332.75 274.9 334.4 273.3 336 271.7 336 269.4"/>
    <path stroke="none" fill="#FCA66C" d="M336 269.4 Q336 271.7 334.4 273.3 332.75 274.9 330.5 274.9 328.2 274.9 326.6 273.3 325 271.7 325 269.4 325 267.15 326.6 265.55 328.2 263.95 330.5 263.95 332.75 263.95 334.4 265.55 336 267.15 336 269.4 M280 261.35 L280 246 Q283 246.1 285.15 248.25 287.4 250.5 287.4 253.65 287.4 256.85 285.15 259.1 283 261.25 280 261.35 M350 250.3 L350 261.35 349.7 261.35 Q346.5 261.35 344.25 259.1 342 256.85 342 253.65 342 250.5 344.25 248.25 346.15 246.35 348.8 246.05 349.6 247.55 349.85 249.65 L350 250.3 M299 260.95 Q300.65 260.95 301.85 262.1 303 263.3 303 264.95 303 266.6 301.85 267.75 300.65 268.9 299 268.9 297.3 268.9 296.2 267.75 295 266.6 295 264.95 295 263.3 296.2 262.1 297.3 260.95 299 260.95 M313 251.5 Q313 249.2 314.6 247.55 316.2 246 318.5 246 320.8 246 322.45 247.55 324 249.2 324 251.5 324 253.75 322.45 255.35 320.8 256.95 318.5 256.95 316.2 256.95 314.6 255.35 313 253.75 313 251.5"/>
    <path stroke="none" fill="#EF975C" d="M280 242 L280 240 340.35 240 Q347.95 240 349.6 246 L350 249.2 350 249.65 349.85 249.65 Q349.6 247.55 348.8 246.05 346.6 242 340.35 242 L280 242"/>
    <path stroke="none" fill="#93DB24" d="M350 249.65 L350 250.3 349.85 249.65 350 249.65"/>
    <path stroke="none" fill="#E1D7BF" d="M345.9 278.9 Q343.7 280 340.35 280 L280 280 280 273 Q309.6 273.05 323.45 275.75 L330.45 276.8 331.5 276.9 345.9 278.9"/>
    <path stroke="none" fill="#FCA66C" d="M40 250.3 Q40 250 40.15 249.65 40.4 247.6 41.15 246.15 43.45 246.55 45.15 248.25 47.4 250.5 47.4 253.7 47.4 256.9 45.15 259.15 43 261.3 40 261.4 L40 250.3 M110 246 L110 261.4 109.7 261.4 Q106.5 261.4 104.25 259.15 102 256.9 102 253.7 102 250.5 104.25 248.25 106.5 246 109.7 246 L110 246 M61.85 262.15 Q63 263.35 63 265 63 266.7 61.85 267.85 60.65 269 59 269 57.3 269 56.2 267.85 55 266.7 55 265 55 263.35 56.2 262.15 57.3 261 59 261 60.65 261 61.85 262.15 M73 251.5 Q73 249.2 74.6 247.55 76.2 246 78.5 246 80.8 246 82.45 247.55 84 249.2 84 251.5 84 253.8 82.45 255.4 80.8 257 78.5 257 76.2 257 74.6 255.4 73 253.8 73 251.5 M86.8 273.6 L86.6 273.4 Q85 271.8 85 269.5 85 267.25 86.6 265.6 88.2 264 90.5 264 92.75 264 94.4 265.6 96 267.25 96 269.5 96 271.7 94.55 273.25 L86.8 273.6"/>
    <path stroke="none" fill="#93DB24" d="M40.15 249.65 Q40 250 40 250.3 L40 249.65 40.15 249.65"/>
    <path stroke="none" fill="#EF975C" d="M40.15 249.65 L40 249.65 40 249.2 Q40.05 247.45 40.4 246.05 L40.4 246 Q42.05 240 49.65 240 L110 240 110 242 49.65 242 Q43.4 242 41.2 246.05 L41.15 246.15 Q40.4 247.6 40.15 249.65"/>
    <path stroke="none" fill="#E86A17" d="M40 261.4 Q43 261.3 45.15 259.15 47.4 256.9 47.4 253.7 47.4 250.5 45.15 248.25 43.45 246.55 41.15 246.15 L41.2 246.05 Q43.4 242 49.65 242 L110 242 110 246 109.7 246 Q106.5 246 104.25 248.25 102 250.5 102 253.7 102 256.9 104.25 259.15 106.5 261.4 109.7 261.4 L110 261.4 110 273 Q101.65 273 94.55 273.25 96 271.7 96 269.5 96 267.25 94.4 265.6 92.75 264 90.5 264 88.2 264 86.6 265.6 85 267.25 85 269.5 85 271.8 86.6 273.4 L86.8 273.6 Q74.25 274.25 66.55 275.75 L59.55 276.8 58.5 276.9 44.1 278.9 43.45 278.5 42.95 278.15 41.95 277.15 41.75 276.9 41.65 276.8 40.85 275.25 40.25 273.2 40.2 273 40 270.9 40 261.4 M73 251.5 Q73 253.8 74.6 255.4 76.2 257 78.5 257 80.8 257 82.45 255.4 84 253.8 84 251.5 84 249.2 82.45 247.55 80.8 246 78.5 246 76.2 246 74.6 247.55 73 249.2 73 251.5 M61.85 262.15 Q60.65 261 59 261 57.3 261 56.2 262.15 55 263.35 55 265 55 266.7 56.2 267.85 57.3 269 59 269 60.65 269 61.85 267.85 63 266.7 63 265 63 263.35 61.85 262.15"/>
    <path stroke="none" fill="#E1D7BF" d="M110 273 L110 280 49.65 280 Q46.3 280 44.1 278.9 L58.5 276.9 59.55 276.8 66.55 275.75 Q74.25 274.25 86.8 273.6 L94.55 273.25 Q101.65 273 110 273"/>
    <path stroke="none" fill="#EF975C" d="M270 242 L200 242 200 240 270 240 270 242"/>
    <path stroke="none" fill="#FCA66C" d="M200 246 Q203 246.1 205.15 248.25 207.4 250.5 207.4 253.7 207.4 256.9 205.15 259.15 203 261.3 200 261.4 L200 246 M246.25 273 Q245 271.5 245 269.5 245 267.25 246.6 265.6 248.2 264 250.5 264 252.75 264 254.4 265.6 256 267.25 256 269.5 256 271.5 254.8 273 L246.25 273 M270 261.4 L269.7 261.4 Q266.5 261.4 264.25 259.15 262 256.9 262 253.7 262 250.5 264.25 248.25 266.5 246 269.7 246 L270 246 270 261.4 M221.85 262.15 Q223 263.35 223 265 223 266.7 221.85 267.85 220.65 269 219 269 217.3 269 216.2 267.85 215 266.7 215 265 215 263.35 216.2 262.15 217.3 261 219 261 220.65 261 221.85 262.15 M234.6 247.55 Q236.2 246 238.5 246 240.8 246 242.45 247.55 244 249.2 244 251.5 244 253.8 242.45 255.4 240.8 257 238.5 257 236.2 257 234.6 255.4 233 253.8 233 251.5 233 249.2 234.6 247.55"/>
    <path stroke="none" fill="#E86A17" d="M234.6 247.55 Q233 249.2 233 251.5 233 253.8 234.6 255.4 236.2 257 238.5 257 240.8 257 242.45 255.4 244 253.8 244 251.5 244 249.2 242.45 247.55 240.8 246 238.5 246 236.2 246 234.6 247.55 M200 261.4 Q203 261.3 205.15 259.15 207.4 256.9 207.4 253.7 207.4 250.5 205.15 248.25 203 246.1 200 246 L200 242 270 242 270 246 269.7 246 Q266.5 246 264.25 248.25 262 250.5 262 253.7 262 256.9 264.25 259.15 266.5 261.4 269.7 261.4 L270 261.4 270 273 254.8 273 Q256 271.5 256 269.5 256 267.25 254.4 265.6 252.75 264 250.5 264 248.2 264 246.6 265.6 245 267.25 245 269.5 245 271.5 246.25 273 L200 273 200 261.4 M221.85 262.15 Q220.65 261 219 261 217.3 261 216.2 262.15 215 263.35 215 265 215 266.7 216.2 267.85 217.3 269 219 269 220.65 269 221.85 267.85 223 266.7 223 265 223 263.35 221.85 262.15"/>
    <path stroke="none" fill="#E1D7BF" d="M200 273 L246.25 273 254.8 273 270 273 270 280 Q238.25 272.8 200 280 L200 273"/>
    <path stroke="none" fill="#CDC2A6" d="M270 280 L200 280 Q238.25 272.8 270 280"/>
    <path stroke="none" fill="#CFA67C" d="M359.95 261.05 L359.95 260.05 359.95 260 Q359.95 258.25 360.2 256.6 361.2 250.45 365.7 245.85 368.1 243.4 370.95 242 374.7 240.15 379.15 240 L429.9 240 429.9 242 379.15 242 Q374.7 242.15 370.95 244 368.1 245.4 365.7 247.85 361.55 252.05 360.4 257.55 360.05 259.25 359.95 261.05"/>
    <path stroke="none" fill="#C58F5C" d="M360.4 257.55 Q361.55 252.05 365.7 247.85 368.1 245.4 370.95 244 374.7 242.15 379.15 242 L429.9 242 429.9 273 379.2 273 Q371.3 272.8 365.7 267.2 361.55 263 360.4 257.55 M386.45 259.5 Q385.15 258.2 383.3 258.2 381.45 258.2 380.05 259.5 378.75 260.9 378.75 262.75 378.75 264.6 380.05 265.95 381.45 267.3 383.3 267.3 385.15 267.3 386.45 265.95 387.85 264.6 387.85 262.75 387.85 260.9 386.45 259.5 M375 255.3 Q375 256.3 375.7 257 376.4 257.7 377.4 257.7 378.4 257.7 379.1 257 379.8 256.3 379.8 255.3 379.8 254.3 379.1 253.6 378.4 252.9 377.4 252.9 376.4 252.9 375.7 253.6 375 254.3 375 255.3 M385.9 250.15 Q384.5 250.15 383.5 251.15 382.5 252.15 382.5 253.55 382.5 254.95 383.5 255.95 384.5 256.95 385.9 256.95 387.3 256.95 388.3 255.95 389.3 254.95 389.3 253.55 389.3 252.15 388.3 251.15 387.3 250.15 385.9 250.15"/>
    <path stroke="none" fill="#B18459" d="M359.95 261.05 Q360.05 259.25 360.4 257.55 361.55 263 365.7 267.2 371.3 272.8 379.2 273 L429.9 273 429.9 280 379.2 280 Q371.3 279.8 365.7 274.2 360.3 268.7 359.95 261.05"/>
    <path stroke="none" fill="#B88351" d="M385.9 250.15 Q387.3 250.15 388.3 251.15 389.3 252.15 389.3 253.55 389.3 254.95 388.3 255.95 387.3 256.95 385.9 256.95 384.5 256.95 383.5 255.95 382.5 254.95 382.5 253.55 382.5 252.15 383.5 251.15 384.5 250.15 385.9 250.15 M375 255.3 Q375 254.3 375.7 253.6 376.4 252.9 377.4 252.9 378.4 252.9 379.1 253.6 379.8 254.3 379.8 255.3 379.8 256.3 379.1 257 378.4 257.7 377.4 257.7 376.4 257.7 375.7 257 375 256.3 375 255.3 M386.45 259.5 Q387.85 260.9 387.85 262.75 387.85 264.6 386.45 265.95 385.15 267.3 383.3 267.3 381.45 267.3 380.05 265.95 378.75 264.6 378.75 262.75 378.75 260.9 380.05 259.5 381.45 258.2 383.3 258.2 385.15 258.2 386.45 259.5"/>
    <path stroke="none" fill="#CFA67C" d="M440 242 L440 240 510 240 510 242 440 242"/>
    <path stroke="none" fill="#C58F5C" d="M440 242 L510 242 510 273 440 273 440 242 M484.55 256.45 Q482.7 256.45 481.3 257.75 480 259.15 480 261 480 262.85 481.3 264.2 482.7 265.55 484.55 265.55 486.4 265.55 487.7 264.2 489.1 262.85 489.1 261 489.1 259.15 487.7 257.75 486.4 256.45 484.55 256.45 M476.25 253.55 Q476.25 254.55 476.95 255.25 477.65 255.95 478.65 255.95 479.65 255.95 480.35 255.25 481.05 254.55 481.05 253.55 481.05 252.55 480.35 251.85 479.65 251.15 478.65 251.15 477.65 251.15 476.95 251.85 476.25 252.55 476.25 253.55 M489.55 249.4 Q488.55 248.4 487.15 248.4 485.75 248.4 484.75 249.4 483.75 250.4 483.75 251.8 483.75 253.2 484.75 254.2 485.75 255.2 487.15 255.2 488.55 255.2 489.55 254.2 490.55 253.2 490.55 251.8 490.55 250.4 489.55 249.4"/>
    <path stroke="none" fill="#B88351" d="M489.55 249.4 Q490.55 250.4 490.55 251.8 490.55 253.2 489.55 254.2 488.55 255.2 487.15 255.2 485.75 255.2 484.75 254.2 483.75 253.2 483.75 251.8 483.75 250.4 484.75 249.4 485.75 248.4 487.15 248.4 488.55 248.4 489.55 249.4 M476.25 253.55 Q476.25 252.55 476.95 251.85 477.65 251.15 478.65 251.15 479.65 251.15 480.35 251.85 481.05 252.55 481.05 253.55 481.05 254.55 480.35 255.25 479.65 255.95 478.65 255.95 477.65 255.95 476.95 255.25 476.25 254.55 476.25 253.55 M484.55 256.45 Q486.4 256.45 487.7 257.75 489.1 259.15 489.1 261 489.1 262.85 487.7 264.2 486.4 265.55 484.55 265.55 482.7 265.55 481.3 264.2 480 262.85 480 261 480 259.15 481.3 257.75 482.7 256.45 484.55 256.45"/>
    <path stroke="none" fill="#B18459" d="M510 273 L510 280 440 280 440 273 510 273"/>
    <path stroke="none" fill="#CFA67C" d="M520 242 L520 240 590 240 590 242 520 242"/>
    <path stroke="none" fill="#C58F5C" d="M520 242 L590 242 590 273 Q554.7 263.55 520 273 L520 242 M537.55 255.5 Q536.25 256.9 536.25 258.75 536.25 260.6 537.55 261.95 538.95 263.3 540.8 263.3 542.65 263.3 543.95 261.95 545.35 260.6 545.35 258.75 545.35 256.9 543.95 255.5 542.65 254.2 540.8 254.2 538.95 254.2 537.55 255.5 M537.3 251.3 Q537.3 250.3 536.6 249.6 535.9 248.9 534.9 248.9 533.9 248.9 533.2 249.6 532.5 250.3 532.5 251.3 532.5 252.3 533.2 253 533.9 253.7 534.9 253.7 535.9 253.7 536.6 253 537.3 252.3 537.3 251.3 M546.8 249.55 Q546.8 248.15 545.8 247.15 544.8 246.15 543.4 246.15 542 246.15 541 247.15 540 248.15 540 249.55 540 250.95 541 251.95 542 252.95 543.4 252.95 544.8 252.95 545.8 251.95 546.8 250.95 546.8 249.55"/>
    <path stroke="none" fill="#B88351" d="M546.8 249.55 Q546.8 250.95 545.8 251.95 544.8 252.95 543.4 252.95 542 252.95 541 251.95 540 250.95 540 249.55 540 248.15 541 247.15 542 246.15 543.4 246.15 544.8 246.15 545.8 247.15 546.8 248.15 546.8 249.55 M537.3 251.3 Q537.3 252.3 536.6 253 535.9 253.7 534.9 253.7 533.9 253.7 533.2 253 532.5 252.3 532.5 251.3 532.5 250.3 533.2 249.6 533.9 248.9 534.9 248.9 535.9 248.9 536.6 249.6 537.3 250.3 537.3 251.3 M537.55 255.5 Q538.95 254.2 540.8 254.2 542.65 254.2 543.95 255.5 545.35 256.9 545.35 258.75 545.35 260.6 543.95 261.95 542.65 263.3 540.8 263.3 538.95 263.3 537.55 261.95 536.25 260.6 536.25 258.75 536.25 256.9 537.55 255.5"/>
    <path stroke="none" fill="#B18459" d="M590 273 L590 280 Q554.7 270.55 520 280 L520 273 Q554.7 263.55 590 273"/>
    <path stroke="none" fill="#CDC2A6" d="M590 280 L520 280 Q554.7 270.55 590 280"/>
    <path stroke="none" fill="#CFA67C" d="M600 242 L600 240 650.75 240 Q655.2 240.15 658.95 242 661.8 243.4 664.2 245.85 668.7 250.45 669.7 256.6 L669.95 260 669.95 260.05 669.95 261.05 669.5 257.55 Q668.35 252.05 664.2 247.85 661.8 245.4 658.95 244 655.2 242.15 650.75 242 L600 242"/>
    <path stroke="none" fill="#C58F5C" d="M600 242 L650.75 242 Q655.2 242.15 658.95 244 661.8 245.4 664.2 247.85 668.35 252.05 669.5 257.55 668.35 263 664.2 267.2 658.6 272.8 650.7 273 L600 273 600 242 M651.85 261.75 Q651.85 259.9 650.45 258.5 649.15 257.2 647.3 257.2 645.45 257.2 644.05 258.5 642.75 259.9 642.75 261.75 642.75 263.6 644.05 264.95 645.45 266.3 647.3 266.3 649.15 266.3 650.45 264.95 651.85 263.6 651.85 261.75 M639.7 252.6 Q639 253.3 639 254.3 639 255.3 639.7 256 640.4 256.7 641.4 256.7 642.4 256.7 643.1 256 643.8 255.3 643.8 254.3 643.8 253.3 643.1 252.6 642.4 251.9 641.4 251.9 640.4 251.9 639.7 252.6 M652.3 250.15 Q651.3 249.15 649.9 249.15 648.5 249.15 647.5 250.15 646.5 251.15 646.5 252.55 646.5 253.95 647.5 254.95 648.5 255.95 649.9 255.95 651.3 255.95 652.3 254.95 653.3 253.95 653.3 252.55 653.3 251.15 652.3 250.15"/>
    <path stroke="none" fill="#B88351" d="M652.3 250.15 Q653.3 251.15 653.3 252.55 653.3 253.95 652.3 254.95 651.3 255.95 649.9 255.95 648.5 255.95 647.5 254.95 646.5 253.95 646.5 252.55 646.5 251.15 647.5 250.15 648.5 249.15 649.9 249.15 651.3 249.15 652.3 250.15 M639.7 252.6 Q640.4 251.9 641.4 251.9 642.4 251.9 643.1 252.6 643.8 253.3 643.8 254.3 643.8 255.3 643.1 256 642.4 256.7 641.4 256.7 640.4 256.7 639.7 256 639 255.3 639 254.3 639 253.3 639.7 252.6 M651.85 261.75 Q651.85 263.6 650.45 264.95 649.15 266.3 647.3 266.3 645.45 266.3 644.05 264.95 642.75 263.6 642.75 261.75 642.75 259.9 644.05 258.5 645.45 257.2 647.3 257.2 649.15 257.2 650.45 258.5 651.85 259.9 651.85 261.75"/>
    <path stroke="none" fill="#B18459" d="M669.95 261.05 Q669.6 268.7 664.2 274.2 658.6 279.8 650.7 280 L600 280 600 273 650.7 273 Q658.6 272.8 664.2 267.2 668.35 263 669.5 257.55 L669.95 261.05"/>
    <path stroke="none" fill="#CFA67C" d="M359.95 181.05 L359.95 180.05 359.95 180 Q359.95 178.25 360.2 176.6 361.2 170.45 365.7 165.85 368.1 163.4 370.95 162 374.7 160.15 379.15 160 L429.9 160 429.9 162 379.15 162 Q374.7 162.15 370.95 164 368.1 165.4 365.7 167.85 361.55 172.05 360.4 177.55 360.05 179.25 359.95 181.05"/>
    <path stroke="none" fill="#C58F5C" d="M360.4 177.55 Q361.55 172.05 365.7 167.85 368.1 165.4 370.95 164 374.7 162.15 379.15 162 L429.9 162 429.9 193 379.2 193 Q371.3 192.8 365.7 187.2 361.55 183 360.4 177.55 M380.05 185.95 Q381.3 187.15 382.95 187.3 L383.3 187.3 Q385.15 187.3 386.45 185.95 387.85 184.6 387.85 182.75 387.85 180.9 386.45 179.5 385.15 178.2 383.3 178.2 L382.95 178.2 Q381.3 178.3 380.05 179.5 378.75 180.9 378.75 182.75 378.75 184.6 380.05 185.95 M379.1 173.6 Q378.4 172.9 377.4 172.9 376.4 172.9 375.7 173.6 375 174.3 375 175.3 375 176.3 375.7 177 376.4 177.7 377.4 177.7 378.4 177.7 379.1 177 379.8 176.3 379.8 175.3 379.8 174.3 379.1 173.6 M388.3 171.15 Q387.3 170.15 385.9 170.15 384.5 170.15 383.5 171.15 L382.95 171.85 Q382.5 172.6 382.5 173.55 382.5 174.5 382.95 175.25 L383.5 175.95 Q384.5 176.95 385.9 176.95 387.3 176.95 388.3 175.95 389.3 174.95 389.3 173.55 389.3 172.15 388.3 171.15"/>
    <path stroke="none" fill="#B88351" d="M388.3 171.15 Q389.3 172.15 389.3 173.55 389.3 174.95 388.3 175.95 387.3 176.95 385.9 176.95 384.5 176.95 383.5 175.95 L382.95 175.25 Q382.5 174.5 382.5 173.55 382.5 172.6 382.95 171.85 L383.5 171.15 Q384.5 170.15 385.9 170.15 387.3 170.15 388.3 171.15 M379.1 173.6 Q379.8 174.3 379.8 175.3 379.8 176.3 379.1 177 378.4 177.7 377.4 177.7 376.4 177.7 375.7 177 375 176.3 375 175.3 375 174.3 375.7 173.6 376.4 172.9 377.4 172.9 378.4 172.9 379.1 173.6 M380.05 185.95 Q378.75 184.6 378.75 182.75 378.75 180.9 380.05 179.5 381.3 178.3 382.95 178.2 L383.3 178.2 Q385.15 178.2 386.45 179.5 387.85 180.9 387.85 182.75 387.85 184.6 386.45 185.95 385.15 187.3 383.3 187.3 L382.95 187.3 Q381.3 187.15 380.05 185.95"/>
    <path stroke="none" fill="#E1D7BF" d="M359.95 181.05 Q360.05 179.25 360.4 177.55 361.55 183 365.7 187.2 371.3 192.8 379.2 193 L429.9 193 429.9 200 379.2 200 Q371.3 199.8 365.7 194.2 360.3 188.7 359.95 181.05"/>
    <path stroke="none" fill="#CFA67C" d="M440 162 L440 160 510 160 510 162 440 162"/>
    <path stroke="none" fill="#E1D7BF" d="M510 193 L510 200 440 200 440 193 510 193"/>
    <path stroke="none" fill="#C58F5C" d="M510 193 L440 193 440 162 510 162 510 193 M487.7 184.2 Q489.1 182.85 489.1 181 489.1 179.15 487.7 177.75 486.4 176.45 484.55 176.45 482.7 176.45 481.3 177.75 480 179.15 480 181 480 182.85 481.3 184.2 482.7 185.55 484.55 185.55 486.4 185.55 487.7 184.2 M478.65 171.15 Q477.65 171.15 476.95 171.85 476.25 172.55 476.25 173.55 476.25 174.55 476.95 175.25 477.65 175.95 478.65 175.95 479.65 175.95 480.35 175.25 481.05 174.55 481.05 173.55 481.05 172.55 480.35 171.85 479.65 171.15 478.65 171.15 M487.15 175.2 Q488.55 175.2 489.55 174.2 490.55 173.2 490.55 171.8 490.55 170.4 489.55 169.4 488.55 168.4 487.15 168.4 485.75 168.4 484.75 169.4 483.75 170.4 483.75 171.8 483.75 173.2 484.75 174.2 485.75 175.2 487.15 175.2"/>
    <path stroke="none" fill="#B88351" d="M487.15 175.2 Q485.75 175.2 484.75 174.2 483.75 173.2 483.75 171.8 483.75 170.4 484.75 169.4 485.75 168.4 487.15 168.4 488.55 168.4 489.55 169.4 490.55 170.4 490.55 171.8 490.55 173.2 489.55 174.2 488.55 175.2 487.15 175.2 M478.65 171.15 Q479.65 171.15 480.35 171.85 481.05 172.55 481.05 173.55 481.05 174.55 480.35 175.25 479.65 175.95 478.65 175.95 477.65 175.95 476.95 175.25 476.25 174.55 476.25 173.55 476.25 172.55 476.95 171.85 477.65 171.15 478.65 171.15 M487.7 184.2 Q486.4 185.55 484.55 185.55 482.7 185.55 481.3 184.2 480 182.85 480 181 480 179.15 481.3 177.75 482.7 176.45 484.55 176.45 486.4 176.45 487.7 177.75 489.1 179.15 489.1 181 489.1 182.85 487.7 184.2"/>
    <path stroke="none" fill="#CFA67C" d="M520 162 L520 160 590 160 590 162 520 162"/>
    <path stroke="none" fill="#C58F5C" d="M520 162 L590 162 590 193 Q554.7 183.55 520 193 L520 162 M540.8 174.2 Q538.95 174.2 537.55 175.5 536.25 176.9 536.25 178.75 536.25 180.6 537.55 181.95 538.95 183.3 540.8 183.3 542.65 183.3 543.95 181.95 545.35 180.6 545.35 178.75 545.35 176.9 543.95 175.5 542.65 174.2 540.8 174.2 M534.9 168.9 Q533.9 168.9 533.2 169.6 532.5 170.3 532.5 171.3 532.5 172.3 533.2 173 533.9 173.7 534.9 173.7 535.9 173.7 536.6 173 537.3 172.3 537.3 171.3 537.3 170.3 536.6 169.6 535.9 168.9 534.9 168.9 M546.8 169.55 Q546.8 168.15 545.8 167.15 544.8 166.15 543.4 166.15 542 166.15 541 167.15 540 168.15 540 169.55 540 170.95 541 171.95 542 172.95 543.4 172.95 544.8 172.95 545.8 171.95 546.8 170.95 546.8 169.55"/>
    <path stroke="none" fill="#B88351" d="M546.8 169.55 Q546.8 170.95 545.8 171.95 544.8 172.95 543.4 172.95 542 172.95 541 171.95 540 170.95 540 169.55 540 168.15 541 167.15 542 166.15 543.4 166.15 544.8 166.15 545.8 167.15 546.8 168.15 546.8 169.55 M534.9 168.9 Q535.9 168.9 536.6 169.6 537.3 170.3 537.3 171.3 537.3 172.3 536.6 173 535.9 173.7 534.9 173.7 533.9 173.7 533.2 173 532.5 172.3 532.5 171.3 532.5 170.3 533.2 169.6 533.9 168.9 534.9 168.9 M540.8 174.2 Q542.65 174.2 543.95 175.5 545.35 176.9 545.35 178.75 545.35 180.6 543.95 181.95 542.65 183.3 540.8 183.3 538.95 183.3 537.55 181.95 536.25 180.6 536.25 178.75 536.25 176.9 537.55 175.5 538.95 174.2 540.8 174.2"/>
    <path stroke="none" fill="#E1D7BF" d="M590 193 L590 200 Q554.7 190.55 520 200 L520 193 Q554.7 183.55 590 193"/>
    <path stroke="none" fill="#CDC2A6" d="M590 200 L520 200 Q554.7 190.55 590 200"/>
    <path stroke="none" fill="#CFA67C" d="M600 162 L600 160 650.75 160 Q655.2 160.15 658.95 162 661.8 163.4 664.2 165.85 668.7 170.45 669.7 176.6 L669.95 180 669.95 180.05 669.95 181.05 669.5 177.55 Q668.35 172.05 664.2 167.85 661.8 165.4 658.95 164 655.2 162.15 650.75 162 L600 162"/>
    <path stroke="none" fill="#C58F5C" d="M600 162 L650.75 162 Q655.2 162.15 658.95 164 661.8 165.4 664.2 167.85 668.35 172.05 669.5 177.55 668.35 183 664.2 187.2 658.6 192.8 650.7 193 L600 193 600 162 M650.45 184.95 Q651.85 183.6 651.85 181.75 651.85 179.9 650.45 178.5 649.15 177.2 647.3 177.2 645.45 177.2 644.05 178.5 642.75 179.9 642.75 181.75 642.75 183.6 644.05 184.95 645.45 186.3 647.3 186.3 649.15 186.3 650.45 184.95 M643.1 176 Q643.8 175.3 643.8 174.3 643.8 173.3 643.1 172.6 642.4 171.9 641.4 171.9 640.4 171.9 639.7 172.6 639 173.3 639 174.3 639 175.3 639.7 176 640.4 176.7 641.4 176.7 642.4 176.7 643.1 176 M647.5 174.95 Q648.5 175.95 649.9 175.95 651.3 175.95 652.3 174.95 653.3 173.95 653.3 172.55 653.3 171.15 652.3 170.15 651.3 169.15 649.9 169.15 648.5 169.15 647.5 170.15 646.5 171.15 646.5 172.55 646.5 173.95 647.5 174.95"/>
    <path stroke="none" fill="#B88351" d="M647.5 174.95 Q646.5 173.95 646.5 172.55 646.5 171.15 647.5 170.15 648.5 169.15 649.9 169.15 651.3 169.15 652.3 170.15 653.3 171.15 653.3 172.55 653.3 173.95 652.3 174.95 651.3 175.95 649.9 175.95 648.5 175.95 647.5 174.95 M643.1 176 Q642.4 176.7 641.4 176.7 640.4 176.7 639.7 176 639 175.3 639 174.3 639 173.3 639.7 172.6 640.4 171.9 641.4 171.9 642.4 171.9 643.1 172.6 643.8 173.3 643.8 174.3 643.8 175.3 643.1 176 M650.45 184.95 Q649.15 186.3 647.3 186.3 645.45 186.3 644.05 184.95 642.75 183.6 642.75 181.75 642.75 179.9 644.05 178.5 645.45 177.2 647.3 177.2 649.15 177.2 650.45 178.5 651.85 179.9 651.85 181.75 651.85 183.6 650.45 184.95"/>
    <path stroke="none" fill="#E1D7BF" d="M669.95 181.05 Q669.6 188.7 664.2 194.2 658.6 199.8 650.7 200 L600 200 600 193 650.7 193 Q658.6 192.8 664.2 187.2 668.35 183 669.5 177.55 L669.95 181.05"/>
    <path stroke="none" fill="#E86A17" d="M378.25 456.65 L378.25 456.6 Q379.45 455.45 379.45 453.75 379.45 452.05 378.25 450.85 377.3 449.9 375.9 449.75 377.3 447.65 379.75 445.85 385.5 441.75 393.55 441.75 401.65 441.75 407.35 445.85 412.3 449.45 412.95 454.35 412.6 455.2 410.9 455.95 411.25 455.2 411.25 454.3 411.25 452.7 410.1 451.55 408.95 450.4 407.35 450.4 405.75 450.4 404.6 451.55 403.45 452.7 403.45 454.3 403.45 455.9 404.6 457.05 L405.1 457.45 399.65 458.1 393.55 458.3 387.45 458.1 379.75 457 378.25 456.65 M386.85 446.9 Q385.25 446.9 384.1 448.05 382.95 449.2 382.95 450.8 382.95 452.4 384.1 453.55 385.25 454.7 386.85 454.7 388.45 454.7 389.6 453.55 390.75 452.4 390.75 450.8 390.75 449.2 389.6 448.05 388.45 446.9 386.85 446.9 M398.05 443.75 Q397.05 443.75 396.3 444.45 395.6 445.2 395.6 446.2 395.6 447.2 396.3 447.9 397.05 448.65 398.05 448.65 399.05 448.65 399.75 447.9 400.5 447.2 400.5 446.2 400.5 445.2 399.75 444.45 399.05 443.75 398.05 443.75"/>
    <path stroke="none" fill="#FCA66C" d="M398.05 443.75 Q399.05 443.75 399.75 444.45 400.5 445.2 400.5 446.2 400.5 447.2 399.75 447.9 399.05 448.65 398.05 448.65 397.05 448.65 396.3 447.9 395.6 447.2 395.6 446.2 395.6 445.2 396.3 444.45 397.05 443.75 398.05 443.75 M386.85 446.9 Q388.45 446.9 389.6 448.05 390.75 449.2 390.75 450.8 390.75 452.4 389.6 453.55 388.45 454.7 386.85 454.7 385.25 454.7 384.1 453.55 382.95 452.4 382.95 450.8 382.95 449.2 384.1 448.05 385.25 446.9 386.85 446.9 M375.9 449.75 Q377.3 449.9 378.25 450.85 379.45 452.05 379.45 453.75 379.45 455.45 378.25 456.6 L378.25 456.65 Q374.7 455.65 374.15 454.35 L374.05 453.85 374.05 453.8 Q374.1 451.65 374.95 449.75 L375.4 449.7 375.9 449.75 M405.1 457.45 L404.6 457.05 Q403.45 455.9 403.45 454.3 403.45 452.7 404.6 451.55 405.75 450.4 407.35 450.4 408.95 450.4 410.1 451.55 411.25 452.7 411.25 454.3 411.25 455.2 410.9 455.95 L407.35 457 405.1 457.45"/>
    <path stroke="none" fill="#EF975C" d="M412.95 454.35 Q412.3 449.45 407.35 445.85 401.65 441.75 393.55 441.75 385.5 441.75 379.75 445.85 377.3 447.65 375.9 449.75 L375.4 449.7 374.95 449.75 Q376.3 446.6 379.75 444.1 385.5 440 393.55 440 401.65 440 407.35 444.1 412.9 448.15 413.05 453.8 L413.05 453.85 412.95 454.35"/>
    <path stroke="none" fill="#E1D7BF" d="M387.45 458.1 L393.55 458.3 399.65 458.1 399.65 460.65 393.55 460.85 387.45 460.65 387.45 458.1"/>
    <path stroke="none" fill="#EFEBDC" d="M399.65 460.65 L399.65 470 387.45 470 387.45 460.65 393.55 460.85 399.65 460.65"/>
    <path stroke="none" fill="#CFA67C" d="M679.95 181.05 L679.95 180.05 679.95 180 Q679.95 178.25 680.2 176.6 681.2 170.45 685.7 165.85 688.1 163.4 690.95 162 694.7 160.15 699.15 160 L749.95 160 749.95 162 699.15 162 Q694.7 162.15 690.95 164 688.1 165.4 685.7 167.85 681.55 172.05 680.4 177.55 680.05 179.25 679.95 181.05"/>
    <path stroke="none" fill="#C58F5C" d="M680.4 177.55 Q681.55 172.05 685.7 167.85 688.1 165.4 690.95 164 694.7 162.15 699.15 162 L749.95 162 749.95 193 699.2 193 Q691.3 192.8 685.7 187.2 681.55 183 680.4 177.55"/>
    <path stroke="none" fill="#E1D7BF" d="M680.4 177.55 Q681.55 183 685.7 187.2 691.3 192.8 699.2 193 L749.95 193 749.95 200 699.2 200 Q691.3 199.8 685.7 194.2 680.3 188.7 679.95 181.05 680.05 179.25 680.4 177.55"/>
    <path stroke="none" fill="#CFA67C" d="M760 162 L760 160 830 160 830 162 760 162"/>
    <path stroke="none" fill="#E1D7BF" d="M830 193 L830 200 760 200 760 193 830 193"/>
    <path stroke="none" fill="#C58F5C" d="M830 193 L760 193 760 162 830 162 830 193"/>
    <path stroke="none" fill="#CFA67C" d="M840 162 L840 160 910 160 910 162 840 162"/>
    <path stroke="none" fill="#E1D7BF" d="M910 193 L910 200 Q874.7 190.55 840 200 L840 193 Q874.7 183.55 910 193"/>
    <path stroke="none" fill="#C58F5C" d="M910 193 Q874.7 183.55 840 193 L840 162 910 162 910 193"/>
    <path stroke="none" fill="#CDC2A6" d="M910 200 L840 200 Q874.7 190.55 910 200"/>
    <path stroke="none" fill="#CFA67C" d="M920 162 L920 160 970.8 160 Q975.25 160.15 979 162 981.85 163.4 984.25 165.85 988.75 170.45 989.75 176.6 L990 180 990 180.05 990 181.05 989.55 177.55 Q988.4 172.05 984.25 167.85 981.85 165.4 979 164 975.25 162.15 970.8 162 L920 162"/>
    <path stroke="none" fill="#C58F5C" d="M920 162 L970.8 162 Q975.25 162.15 979 164 981.85 165.4 984.25 167.85 988.4 172.05 989.55 177.55 988.4 183 984.25 187.2 978.65 192.8 970.75 193 L920 193 920 162"/>
    <path stroke="none" fill="#E1D7BF" d="M990 181.05 Q989.65 188.7 984.25 194.2 978.65 199.8 970.75 200 L920 200 920 193 970.75 193 Q978.65 192.8 984.25 187.2 988.4 183 989.55 177.55 L990 181.05"/>
    <path stroke="none" fill="#CFA67C" d="M920 242 L920 240 970.8 240 Q975.25 240.15 979 242 981.85 243.4 984.25 245.85 988.75 250.45 989.75 256.6 L990 260 990 260.05 990 261.05 989.55 257.55 Q988.4 252.05 984.25 247.85 981.85 245.4 979 244 975.25 242.15 970.8 242 L920 242"/>
    <path stroke="none" fill="#C58F5C" d="M920 242 L970.8 242 Q975.25 242.15 979 244 981.85 245.4 984.25 247.85 988.4 252.05 989.55 257.55 988.4 263 984.25 267.2 978.65 272.8 970.75 273 L920 273 920 242"/>
    <path stroke="none" fill="#B18459" d="M990 261.05 Q989.65 268.7 984.25 274.2 978.65 279.8 970.75 280 L920 280 920 273 970.75 273 Q978.65 272.8 984.25 267.2 988.4 263 989.55 257.55 L990 261.05"/>
    <path stroke="none" fill="#CFA67C" d="M840 242 L840 240 910 240 910 242 840 242"/>
    <path stroke="none" fill="#C58F5C" d="M840 242 L910 242 910 273 Q874.7 263.55 840 273 L840 242"/>
    <path stroke="none" fill="#B18459" d="M910 273 L910 280 Q874.7 270.55 840 280 L840 273 Q874.7 263.55 910 273"/>
    <path stroke="none" fill="#CDC2A6" d="M910 280 L840 280 Q874.7 270.55 910 280"/>
    <path stroke="none" fill="#CFA67C" d="M760 242 L760 240 830 240 830 242 760 242"/>
    <path stroke="none" fill="#C58F5C" d="M760 242 L830 242 830 273 760 273 760 242"/>
    <path stroke="none" fill="#B18459" d="M830 273 L830 280 760 280 760 273 830 273"/>
    <path stroke="none" fill="#CFA67C" d="M679.95 261.05 L679.95 260.05 679.95 260 Q679.95 258.25 680.2 256.6 681.2 250.45 685.7 245.85 688.1 243.4 690.95 242 694.7 240.15 699.15 240 L749.95 240 749.95 242 699.15 242 Q694.7 242.15 690.95 244 688.1 245.4 685.7 247.85 681.55 252.05 680.4 257.55 680.05 259.25 679.95 261.05"/>
    <path stroke="none" fill="#C58F5C" d="M680.4 257.55 Q681.55 252.05 685.7 247.85 688.1 245.4 690.95 244 694.7 242.15 699.15 242 L749.95 242 749.95 273 699.2 273 Q691.3 272.8 685.7 267.2 681.55 263 680.4 257.55"/>
    <path stroke="none" fill="#B18459" d="M680.4 257.55 Q681.55 263 685.7 267.2 691.3 272.8 699.2 273 L749.95 273 749.95 280 699.2 280 Q691.3 279.8 685.7 274.2 680.3 268.7 679.95 261.05 680.05 259.25 680.4 257.55"/>
    <path stroke="none" fill="#CDC2A6" d="M659.55 323.55 Q635.4 326.4 611.25 323.6 606.75 321.05 600 320 L670 320 Q663.7 321.05 659.55 323.55"/>
    <path stroke="none" fill="#E1D7BF" d="M659.55 323.55 Q658.35 324.2 657.35 325 651.7 329.4 651 337.2 L651 390 620 390 620 337.2 Q619.3 329.4 613.4 325 L611.25 323.6 Q635.4 326.4 659.55 323.55 M626.25 373.45 Q626.8 374 627.55 374 628.25 374 628.75 373.45 629.3 373 629.3 372.25 629.3 371.5 628.75 370.95 628.25 370.55 627.55 370.55 626.8 370.55 626.25 370.95 625.75 371.5 625.75 372.25 625.75 373 626.25 373.45 M637.35 382.2 Q637.35 381 636.45 380.05 635.65 379.25 634.45 379.25 633.2 379.25 632.25 380.05 631.45 381 631.45 382.2 631.45 383.45 632.25 384.25 633.2 385.1 634.45 385.1 635.65 385.1 636.45 384.25 637.35 383.45 637.35 382.2 M634.85 352.9 Q634.85 354.15 635.8 355.1 636.65 356 637.95 356 639.25 356 640.2 355.1 641.05 354.15 641.05 352.9 641.05 351.6 640.2 350.7 639.25 349.75 637.95 349.75 636.65 349.75 635.8 350.7 634.85 351.6 634.85 352.9"/>
    <path stroke="none" fill="#D6CDB3" d="M634.85 352.9 Q634.85 351.6 635.8 350.7 636.65 349.75 637.95 349.75 639.25 349.75 640.2 350.7 641.05 351.6 641.05 352.9 641.05 354.15 640.2 355.1 639.25 356 637.95 356 636.65 356 635.8 355.1 634.85 354.15 634.85 352.9 M637.35 382.2 Q637.35 383.45 636.45 384.25 635.65 385.1 634.45 385.1 633.2 385.1 632.25 384.25 631.45 383.45 631.45 382.2 631.45 381 632.25 380.05 633.2 379.25 634.45 379.25 635.65 379.25 636.45 380.05 637.35 381 637.35 382.2 M626.25 373.45 Q625.75 373 625.75 372.25 625.75 371.5 626.25 370.95 626.8 370.55 627.55 370.55 628.25 370.55 628.75 370.95 629.3 371.5 629.3 372.25 629.3 373 628.75 373.45 628.25 374 627.55 374 626.8 374 626.25 373.45"/>
    <path stroke="none" fill="#E1D7BF" d="M487.45 343.5 Q487.45 342 486.4 340.9 485.35 339.9 483.85 339.9 482.35 339.9 481.25 340.9 480.25 342 480.25 343.5 480.25 345 481.25 346.05 482.35 347.1 483.85 347.1 485.35 347.1 486.4 346.05 487.45 345 487.45 343.5 M469.05 356.65 Q469.05 358.65 470.5 360.1 471.95 361.55 473.95 361.55 476 361.55 477.45 360.1 478.85 358.65 478.85 356.65 478.85 354.6 477.45 353.15 476 351.75 473.95 351.75 471.95 351.75 470.5 353.15 469.05 354.6 469.05 356.65 M475.55 337.75 Q475.55 336.7 474.75 335.95 474.05 335.2 473.05 335.2 472 335.2 471.2 335.95 470.5 336.7 470.5 337.75 470.5 338.75 471.2 339.45 472 340.25 473.05 340.25 474.05 340.25 474.75 339.45 475.55 338.75 475.55 337.75 M460 320 L491 320 491 356.1 491 356.65 Q491.45 374.4 503.7 387.4 L503.7 390 447.3 390 447.3 387.4 Q459.55 374.4 460 356.65 L460 320"/>
    <path stroke="none" fill="#D6CDB3" d="M475.55 337.75 Q475.55 338.75 474.75 339.45 474.05 340.25 473.05 340.25 472 340.25 471.2 339.45 470.5 338.75 470.5 337.75 470.5 336.7 471.2 335.95 472 335.2 473.05 335.2 474.05 335.2 474.75 335.95 475.55 336.7 475.55 337.75 M469.05 356.65 Q469.05 354.6 470.5 353.15 471.95 351.75 473.95 351.75 476 351.75 477.45 353.15 478.85 354.6 478.85 356.65 478.85 358.65 477.45 360.1 476 361.55 473.95 361.55 471.95 361.55 470.5 360.1 469.05 358.65 469.05 356.65 M487.45 343.5 Q487.45 345 486.4 346.05 485.35 347.1 483.85 347.1 482.35 347.1 481.25 346.05 480.25 345 480.25 343.5 480.25 342 481.25 340.9 482.35 339.9 483.85 339.9 485.35 339.9 486.4 340.9 487.45 342 487.45 343.5"/>
    <path stroke="none" fill="#E1D7BF" d="M716.6 355.5 Q715.5 355.5 714.65 356.25 713.9 357.05 713.9 358.2 713.9 359.35 714.65 360.1 715.5 360.95 716.6 360.95 717.75 360.95 718.5 360.1 719.35 359.35 719.35 358.2 719.35 357.05 718.5 356.25 717.75 355.5 716.6 355.5 M710.2 330.9 Q710.2 330.2 709.7 329.65 709.25 329.25 708.55 329.25 707.85 329.25 707.35 329.65 706.9 330.2 706.9 330.9 706.9 331.55 707.35 332 707.85 332.5 708.55 332.5 709.25 332.5 709.7 332 710.2 331.55 710.2 330.9 M722 331.7 Q720.6 331.7 719.6 332.65 718.65 333.65 718.65 335.05 718.65 336.45 719.6 337.4 720.6 338.4 722 338.4 723.4 338.4 724.35 337.4 725.35 336.45 725.35 335.05 725.35 333.65 724.35 332.65 723.4 331.7 722 331.7 M700 320 L731 320 731 390 700 390 700 320 M706.9 367.35 Q706.9 368.8 707.95 369.85 709 370.9 710.45 370.9 711.9 370.9 712.95 369.85 714 368.8 714 367.35 714 365.9 712.95 364.8 711.9 363.8 710.45 363.8 709 363.8 707.95 364.8 706.9 365.9 706.9 367.35"/>
    <path stroke="none" fill="#D6CDB3" d="M706.9 367.35 Q706.9 365.9 707.95 364.8 709 363.8 710.45 363.8 711.9 363.8 712.95 364.8 714 365.9 714 367.35 714 368.8 712.95 369.85 711.9 370.9 710.45 370.9 709 370.9 707.95 369.85 706.9 368.8 706.9 367.35 M722 331.7 Q723.4 331.7 724.35 332.65 725.35 333.65 725.35 335.05 725.35 336.45 724.35 337.4 723.4 338.4 722 338.4 720.6 338.4 719.6 337.4 718.65 336.45 718.65 335.05 718.65 333.65 719.6 332.65 720.6 331.7 722 331.7 M710.2 330.9 Q710.2 331.55 709.7 332 709.25 332.5 708.55 332.5 707.85 332.5 707.35 332 706.9 331.55 706.9 330.9 706.9 330.2 707.35 329.65 707.85 329.25 708.55 329.25 709.25 329.25 709.7 329.65 710.2 330.2 710.2 330.9 M716.6 355.5 Q717.75 355.5 718.5 356.25 719.35 357.05 719.35 358.2 719.35 359.35 718.5 360.1 717.75 360.95 716.6 360.95 715.5 360.95 714.65 360.1 713.9 359.35 713.9 358.2 713.9 357.05 714.65 356.25 715.5 355.5 716.6 355.5"/>
    <path stroke="none" fill="#E1D7BF" d="M811 359.55 Q805.6 360.8 800.05 361.15 L796.2 361.25 795.4 361.25 Q787.55 361.35 780 359.6 L780 320 811 320 811 359.55 M801.6 336.05 Q801.6 334.65 800.6 333.6 799.65 332.65 798.25 332.65 796.85 332.65 795.85 333.6 794.85 334.65 794.85 336.05 794.85 337.4 795.85 338.35 796.85 339.4 798.25 339.4 799.65 339.4 800.6 338.35 801.6 337.4 801.6 336.05 M805.9 325.5 L805.35 325.05 804.1 324.75 802.8 325.05 802.2 325.5 Q801.5 326.3 801.5 327.35 801.5 328.45 802.2 329.15 803 329.95 804.1 329.95 805.15 329.95 805.9 329.15 806.65 328.45 806.65 327.35 806.65 326.3 805.9 325.5 M780 368.05 Q787.65 370.3 795.4 370.2 803.25 370.3 811 368 L811 390 780 390 780 368.05 M781.5 378.6 Q782 379.1 782.65 379.1 783.3 379.1 783.7 378.6 784.2 378.15 784.2 377.5 784.2 376.85 783.7 376.35 783.3 375.95 782.65 375.95 782 375.95 781.5 376.35 781.1 376.85 781.1 377.5 781.1 378.15 781.5 378.6 M797.65 379.2 Q796.7 378.3 795.4 378.3 794.1 378.3 793.1 379.2 792.2 380.15 792.2 381.5 792.2 382.8 793.1 383.7 794.1 384.65 795.4 384.65 796.7 384.65 797.65 383.7 798.6 382.8 798.6 381.5 798.6 380.15 797.65 379.2"/>
    <path stroke="none" fill="#D6CDB3" d="M797.65 379.2 Q798.6 380.15 798.6 381.5 798.6 382.8 797.65 383.7 796.7 384.65 795.4 384.65 794.1 384.65 793.1 383.7 792.2 382.8 792.2 381.5 792.2 380.15 793.1 379.2 794.1 378.3 795.4 378.3 796.7 378.3 797.65 379.2 M805.9 325.5 Q806.65 326.3 806.65 327.35 806.65 328.45 805.9 329.15 805.15 329.95 804.1 329.95 803 329.95 802.2 329.15 801.5 328.45 801.5 327.35 801.5 326.3 802.2 325.5 L802.8 325.05 804.1 324.75 805.35 325.05 805.9 325.5 M801.6 336.05 Q801.6 337.4 800.6 338.35 799.65 339.4 798.25 339.4 796.85 339.4 795.85 338.35 794.85 337.4 794.85 336.05 794.85 334.65 795.85 333.6 796.85 332.65 798.25 332.65 799.65 332.65 800.6 333.6 801.6 334.65 801.6 336.05 M780 359.6 Q787.55 361.35 795.4 361.25 L796.2 361.25 800.05 361.15 Q805.6 360.8 811 359.55 L811 368 Q803.25 370.3 795.4 370.2 787.65 370.3 780 368.05 L780 359.6 M781.5 378.6 Q781.1 378.15 781.1 377.5 781.1 376.85 781.5 376.35 782 375.95 782.65 375.95 783.3 375.95 783.7 376.35 784.2 376.85 784.2 377.5 784.2 378.15 783.7 378.6 783.3 379.1 782.65 379.1 782 379.1 781.5 378.6"/>
    <path stroke="none" fill="#D6CDB3" d="M760 354.3 L760 354.05 Q760.2 352.6 763.9 351.05 L779.85 345.6 Q785.15 348 794.95 347.9 804.8 348 811.15 345.8 L826 351.05 Q829.85 352.6 829.95 354.1 L829.95 354.15 829.75 354.9 Q829 356.05 826 357.25 810.7 362.85 794.95 362.75 779.25 362.85 763.9 357.25 760.9 356.05 760.25 354.9 L760 354.3"/>
    <path stroke="none" fill="#C6BDA0" d="M760 354.3 L760.25 354.9 Q760.9 356.05 763.9 357.25 779.25 362.85 794.95 362.75 810.7 362.85 826 357.25 829 356.05 829.75 354.9 L829.95 354.15 830 355.75 829.95 355.75 Q829.95 357.6 826 359.45 810.7 366.2 794.95 366 779.25 366.2 763.9 359.45 760.2 357.7 760 355.9 L760 355.6 760 354.3"/>
    <path stroke="none" fill="#E1D7BF" d="M874.65 356.25 Q873.9 357.05 873.9 358.2 873.9 359.35 874.65 360.1 875.5 360.95 876.6 360.95 877.75 360.95 878.5 360.1 879.35 359.35 879.35 358.2 879.35 357.05 878.5 356.25 877.75 355.5 876.6 355.5 875.5 355.5 874.65 356.25 M870.2 330.9 Q870.2 330.2 869.7 329.65 869.25 329.25 868.55 329.25 867.85 329.25 867.35 329.65 866.9 330.2 866.9 330.9 866.9 331.55 867.35 332 867.85 332.5 868.55 332.5 869.25 332.5 869.7 332 870.2 331.55 870.2 330.9 M884.35 332.65 Q883.4 331.7 882 331.7 880.6 331.7 879.6 332.65 878.65 333.65 878.65 335.05 878.65 336.45 879.6 337.4 880.6 338.4 882 338.4 883.4 338.4 884.35 337.4 885.35 336.45 885.35 335.05 885.35 333.65 884.35 332.65 M860 320 L891 320 891 390 860 390 860 320 M872.95 369.85 Q874 368.8 874 367.35 874 365.9 872.95 364.8 871.9 363.8 870.45 363.8 869 363.8 867.95 364.8 866.9 365.9 866.9 367.35 866.9 368.8 867.95 369.85 869 370.9 870.45 370.9 871.9 370.9 872.95 369.85"/>
    <path stroke="none" fill="#D6CDB3" d="M872.95 369.85 Q871.9 370.9 870.45 370.9 869 370.9 867.95 369.85 866.9 368.8 866.9 367.35 866.9 365.9 867.95 364.8 869 363.8 870.45 363.8 871.9 363.8 872.95 364.8 874 365.9 874 367.35 874 368.8 872.95 369.85 M884.35 332.65 Q885.35 333.65 885.35 335.05 885.35 336.45 884.35 337.4 883.4 338.4 882 338.4 880.6 338.4 879.6 337.4 878.65 336.45 878.65 335.05 878.65 333.65 879.6 332.65 880.6 331.7 882 331.7 883.4 331.7 884.35 332.65 M870.2 330.9 Q870.2 331.55 869.7 332 869.25 332.5 868.55 332.5 867.85 332.5 867.35 332 866.9 331.55 866.9 330.9 866.9 330.2 867.35 329.65 867.85 329.25 868.55 329.25 869.25 329.25 869.7 329.65 870.2 330.2 870.2 330.9 M874.65 356.25 Q875.5 355.5 876.6 355.5 877.75 355.5 878.5 356.25 879.35 357.05 879.35 358.2 879.35 359.35 878.5 360.1 877.75 360.95 876.6 360.95 875.5 360.95 874.65 360.1 873.9 359.35 873.9 358.2 873.9 357.05 874.65 356.25"/>
    <path stroke="none" fill="#E1D7BF" d="M953.9 358.2 Q953.9 359.35 954.65 360.1 955.5 360.95 956.6 360.95 957.75 360.95 958.5 360.1 959.35 359.35 959.35 358.2 959.35 357.05 958.5 356.25 957.75 355.5 956.6 355.5 955.5 355.5 954.65 356.25 953.9 357.05 953.9 358.2 M940 350 Q955.3 351.95 971 350 L971 390 940 390 940 350 M950.45 370.9 Q951.9 370.9 952.95 369.85 954 368.8 954 367.35 954 365.9 952.95 364.8 951.9 363.8 950.45 363.8 949 363.8 947.95 364.8 946.9 365.9 946.9 367.35 946.9 368.8 947.95 369.85 949 370.9 950.45 370.9"/>
    <path stroke="none" fill="#D6CDB3" d="M950.45 370.9 Q949 370.9 947.95 369.85 946.9 368.8 946.9 367.35 946.9 365.9 947.95 364.8 949 363.8 950.45 363.8 951.9 363.8 952.95 364.8 954 365.9 954 367.35 954 368.8 952.95 369.85 951.9 370.9 950.45 370.9 M953.9 358.2 Q953.9 357.05 954.65 356.25 955.5 355.5 956.6 355.5 957.75 355.5 958.5 356.25 959.35 357.05 959.35 358.2 959.35 359.35 958.5 360.1 957.75 360.95 956.6 360.95 955.5 360.95 954.65 360.1 953.9 359.35 953.9 358.2 M971 350 Q955.3 351.95 940 350 L940 320 971 320 971 350"/>
    <path stroke="none" fill="#000000" fill-opacity="0.10196078431372549" d="M890.15 337.95 L890.95 337.9 890.95 345.45 889.9 349.75 888.35 352.9 Q889.55 352.2 890.95 352.3 L890.95 366.4 Q888.2 365.25 884.75 365.15 L884 364.9 883.85 364.9 883.7 364.85 Q882.55 364.35 881.8 363.25 L876.4 369.4 876.7 369.6 Q878.35 370.7 878.75 372.65 879.05 374.65 877.95 376.3 877.15 377.45 876 377.95 L875.85 378 875.7 378 874.95 378.25 Q867.9 378.45 863.9 383.05 863.3 381.2 863.1 379.25 L860.05 380.75 860.05 374.3 863.5 372.4 864.2 369.55 864.25 369.45 864.25 369.4 Q864.4 368.4 865.05 367.5 866.15 365.85 868.15 365.45 870.1 365.1 871.75 366.2 L871.8 366.25 Q882.7 356.25 889.3 339.05 L889.9 338.2 890.15 337.95"/>
    <path stroke="none" fill="#90D228" d="M857.65 375.8 L857.65 374.8 Q857.6 374.1 857.7 373.5 L858.3 372.4 859.15 371.7 Q879.2 362.25 889.3 336.05 L889.9 335.2 890.15 334.95 890.95 334.9 Q891.35 335.2 891.55 335.95 L891.65 337.4 891.65 338.4 891.55 337.95 Q891.35 337.2 890.95 336.9 L890.15 336.95 889.9 337.2 889.3 338.05 Q879.2 364.25 859.15 373.7 L858.3 374.4 857.7 375.5 857.65 375.8"/>
    <path stroke="none" fill="#80BE1F" d="M857.65 375.8 L857.7 375.5 858.3 374.4 859.15 373.7 Q879.2 364.25 889.3 338.05 L889.9 337.2 890.15 336.95 890.95 336.9 Q891.35 337.2 891.55 337.95 L891.65 338.4 891.6 339.5 889.9 346.75 Q878.9 369.7 859.2 378.1 L859.15 378.1 Q858.75 378.4 858.3 378.1 857.9 377.8 857.7 377.05 L857.65 375.8"/>
    <path stroke="none" fill="#90D228" d="M887.95 350.1 Q889.6 349 891.55 349.35 893.55 349.75 894.65 351.4 895.3 352.3 895.45 353.3 L895.45 353.35 895.5 353.45 Q897.75 360.95 895.8 366.95 891.8 362.35 884.75 362.15 L884 361.9 883.85 361.9 883.7 361.85 Q882.55 361.35 881.75 360.2 880.65 358.55 880.95 356.55 881.35 354.6 883 353.5 884.45 352.5 886.1 352.65 886.5 351.1 887.95 350.1"/>
    <path stroke="none" fill="#90D228" d="M878.75 369.65 Q879.05 371.65 877.95 373.3 877.15 374.45 876 374.95 L875.85 375 875.7 375 874.95 375.25 Q867.9 375.45 863.9 380.05 861.95 374.05 864.2 366.55 L864.25 366.45 864.25 366.4 Q864.4 365.4 865.05 364.5 866.15 362.85 868.15 362.45 870.1 362.1 871.75 363.2 873.2 364.2 873.6 365.75 875.25 365.6 876.7 366.6 878.35 367.7 878.75 369.65"/>
    <path stroke="none" fill="#E1D7BF" d="M411 356.1 L411 356.65 Q411.35 369.75 417.6 380.1 423.85 390.4 412.1 390 L378.9 390 Q367.15 390.4 373.4 380.1 379.65 369.75 380 356.65 L380 320 411 320 411 356.1 M382.9 366.9 Q382.9 368.9 384.35 370.35 385.8 371.8 387.8 371.8 389.85 371.8 391.3 370.35 392.7 368.9 392.7 366.9 392.7 364.85 391.3 363.4 389.85 362 387.8 362 385.8 362 384.35 363.4 382.9 364.85 382.9 366.9 M397.7 350.15 Q396.2 350.15 395.1 351.15 394.1 352.25 394.1 353.75 394.1 355.25 395.1 356.3 396.2 357.35 397.7 357.35 399.2 357.35 400.25 356.3 401.3 355.25 401.3 353.75 401.3 352.25 400.25 351.15 399.2 350.15 397.7 350.15 M386.9 350.5 Q387.9 350.5 388.6 349.7 389.4 349 389.4 348 389.4 346.95 388.6 346.2 387.9 345.45 386.9 345.45 385.85 345.45 385.05 346.2 384.35 346.95 384.35 348 384.35 349 385.05 349.7 385.85 350.5 386.9 350.5"/>
    <path stroke="none" fill="#D6CDB3" d="M386.9 350.5 Q385.85 350.5 385.05 349.7 384.35 349 384.35 348 384.35 346.95 385.05 346.2 385.85 345.45 386.9 345.45 387.9 345.45 388.6 346.2 389.4 346.95 389.4 348 389.4 349 388.6 349.7 387.9 350.5 386.9 350.5 M397.7 350.15 Q399.2 350.15 400.25 351.15 401.3 352.25 401.3 353.75 401.3 355.25 400.25 356.3 399.2 357.35 397.7 357.35 396.2 357.35 395.1 356.3 394.1 355.25 394.1 353.75 394.1 352.25 395.1 351.15 396.2 350.15 397.7 350.15 M382.9 366.9 Q382.9 364.85 384.35 363.4 385.8 362 387.8 362 389.85 362 391.3 363.4 392.7 364.85 392.7 366.9 392.7 368.9 391.3 370.35 389.85 371.8 387.8 371.8 385.8 371.8 384.35 370.35 382.9 368.9 382.9 366.9"/>
    <path stroke="none" fill="#E1D7BF" d="M78.5 406 Q76.2 406 74.6 407.55 73 409.2 73 411.5 73 413.8 74.6 415.4 76.2 417 78.5 417 80.8 417 82.45 415.4 84 413.8 84 411.5 84 409.2 82.45 407.55 80.8 406 78.5 406 M41.15 406.15 L41.2 406.05 Q43.4 402 49.65 402 L110 402 110 406 109.7 406 Q106.5 406 104.25 408.25 102 410.5 102 413.7 102 416.9 104.25 419.15 106.5 421.4 109.7 421.4 L110 421.4 110 433 Q101.65 433 94.55 433.25 96 431.7 96 429.5 96 427.25 94.4 425.6 92.75 424 90.5 424 88.2 424 86.6 425.6 85 427.25 85 429.5 85 431.8 86.6 433.4 L86.8 433.6 Q74.25 434.25 66.55 435.75 L59.55 436.8 58.5 436.9 44.1 438.9 43.45 438.5 42.95 438.15 41.95 437.15 41.75 436.9 41.65 436.8 40.85 435.25 40.25 433.2 40.2 433 40 430.9 40 421.4 Q43 421.3 45.15 419.15 47.4 416.9 47.4 413.7 47.4 410.5 45.15 408.25 43.45 406.55 41.15 406.15 M61.85 422.15 Q60.65 421 59 421 57.3 421 56.2 422.15 55 423.35 55 425 55 426.7 56.2 427.85 57.3 429 59 429 60.65 429 61.85 427.85 63 426.7 63 425 63 423.35 61.85 422.15"/>
    <path stroke="none" fill="#D6CDB3" d="M61.85 422.15 Q63 423.35 63 425 63 426.7 61.85 427.85 60.65 429 59 429 57.3 429 56.2 427.85 55 426.7 55 425 55 423.35 56.2 422.15 57.3 421 59 421 60.65 421 61.85 422.15 M78.5 406 Q80.8 406 82.45 407.55 84 409.2 84 411.5 84 413.8 82.45 415.4 80.8 417 78.5 417 76.2 417 74.6 415.4 73 413.8 73 411.5 73 409.2 74.6 407.55 76.2 406 78.5 406 M41.15 406.15 Q43.45 406.55 45.15 408.25 47.4 410.5 47.4 413.7 47.4 416.9 45.15 419.15 43 421.3 40 421.4 L40 410.3 Q40 410 40.15 409.65 40.4 407.6 41.15 406.15 M86.8 433.6 L86.6 433.4 Q85 431.8 85 429.5 85 427.25 86.6 425.6 88.2 424 90.5 424 92.75 424 94.4 425.6 96 427.25 96 429.5 96 431.7 94.55 433.25 L86.8 433.6 M110 421.4 L109.7 421.4 Q106.5 421.4 104.25 419.15 102 416.9 102 413.7 102 410.5 104.25 408.25 106.5 406 109.7 406 L110 406 110 421.4"/>
    <path stroke="none" fill="#F3ECDC" d="M110 402 L49.65 402 Q43.4 402 41.2 406.05 L41.15 406.15 Q40.4 407.6 40.15 409.65 L40 409.65 40 409.2 Q40.05 407.45 40.4 406.05 L40.4 406 Q42.05 400 49.65 400 L110 400 110 402"/>
    <path stroke="none" fill="#93DB24" d="M40 409.65 L40.15 409.65 Q40 410 40 410.3 L40 409.65"/>
    <path stroke="none" fill="#C58F5C" d="M44.1 438.9 L58.5 436.9 59.55 436.8 66.55 435.75 Q74.25 434.25 86.8 433.6 L94.55 433.25 Q101.65 433 110 433 L110 440 49.65 440 Q46.3 440 44.1 438.9"/>
    <path stroke="none" fill="#F3ECDC" d="M190 402 L120 402 120 400 190 400 190 402"/>
    <path stroke="none" fill="#E1D7BF" d="M190 402 L190 406 189.7 406 Q186.5 406 184.25 408.25 182 410.5 182 413.7 182 416.9 184.25 419.15 186.5 421.4 189.7 421.4 L190 421.4 190 433 174.8 433 Q176 431.5 176 429.5 176 427.25 174.4 425.6 172.75 424 170.5 424 168.2 424 166.6 425.6 165 427.25 165 429.5 165 431.5 166.25 433 L120 433 120 421.4 Q123 421.3 125.15 419.15 127.4 416.9 127.4 413.7 127.4 410.5 125.15 408.25 123 406.1 120 406 L120 402 190 402 M143 425 Q143 423.35 141.85 422.15 140.65 421 139 421 137.3 421 136.2 422.15 135 423.35 135 425 135 426.7 136.2 427.85 137.3 429 139 429 140.65 429 141.85 427.85 143 426.7 143 425 M158.5 406 Q156.2 406 154.6 407.55 153 409.2 153 411.5 153 413.8 154.6 415.4 156.2 417 158.5 417 160.8 417 162.45 415.4 164 413.8 164 411.5 164 409.2 162.45 407.55 160.8 406 158.5 406"/>
    <path stroke="none" fill="#D6CDB3" d="M158.5 406 Q160.8 406 162.45 407.55 164 409.2 164 411.5 164 413.8 162.45 415.4 160.8 417 158.5 417 156.2 417 154.6 415.4 153 413.8 153 411.5 153 409.2 154.6 407.55 156.2 406 158.5 406 M190 421.4 L189.7 421.4 Q186.5 421.4 184.25 419.15 182 416.9 182 413.7 182 410.5 184.25 408.25 186.5 406 189.7 406 L190 406 190 421.4 M120 406 Q123 406.1 125.15 408.25 127.4 410.5 127.4 413.7 127.4 416.9 125.15 419.15 123 421.3 120 421.4 L120 406 M166.25 433 Q165 431.5 165 429.5 165 427.25 166.6 425.6 168.2 424 170.5 424 172.75 424 174.4 425.6 176 427.25 176 429.5 176 431.5 174.8 433 L166.25 433 M143 425 Q143 426.7 141.85 427.85 140.65 429 139 429 137.3 429 136.2 427.85 135 426.7 135 425 135 423.35 136.2 422.15 137.3 421 139 421 140.65 421 141.85 422.15 143 423.35 143 425"/>
    <path stroke="none" fill="#C58F5C" d="M120 433 L166.25 433 174.8 433 190 433 190 440 120 440 120 433"/>
    <path stroke="none" fill="#E1D7BF" d="M234.6 407.55 Q233 409.2 233 411.5 233 413.8 234.6 415.4 236.2 417 238.5 417 240.8 417 242.45 415.4 244 413.8 244 411.5 244 409.2 242.45 407.55 240.8 406 238.5 406 236.2 406 234.6 407.55 M200 406 L200 402 270 402 270 406 269.7 406 Q266.5 406 264.25 408.25 262 410.5 262 413.7 262 416.9 264.25 419.15 266.5 421.4 269.7 421.4 L270 421.4 270 433 254.8 433 Q256 431.5 256 429.5 256 427.25 254.4 425.6 252.75 424 250.5 424 248.2 424 246.6 425.6 245 427.25 245 429.5 245 431.5 246.25 433 L200 433 200 421.4 Q203 421.3 205.15 419.15 207.4 416.9 207.4 413.7 207.4 410.5 205.15 408.25 203 406.1 200 406 M223 425 Q223 423.35 221.85 422.15 220.65 421 219 421 217.3 421 216.2 422.15 215 423.35 215 425 215 426.7 216.2 427.85 217.3 429 219 429 220.65 429 221.85 427.85 223 426.7 223 425"/>
    <path stroke="none" fill="#D6CDB3" d="M223 425 Q223 426.7 221.85 427.85 220.65 429 219 429 217.3 429 216.2 427.85 215 426.7 215 425 215 423.35 216.2 422.15 217.3 421 219 421 220.65 421 221.85 422.15 223 423.35 223 425 M234.6 407.55 Q236.2 406 238.5 406 240.8 406 242.45 407.55 244 409.2 244 411.5 244 413.8 242.45 415.4 240.8 417 238.5 417 236.2 417 234.6 415.4 233 413.8 233 411.5 233 409.2 234.6 407.55 M200 406 Q203 406.1 205.15 408.25 207.4 410.5 207.4 413.7 207.4 416.9 205.15 419.15 203 421.3 200 421.4 L200 406 M246.25 433 Q245 431.5 245 429.5 245 427.25 246.6 425.6 248.2 424 250.5 424 252.75 424 254.4 425.6 256 427.25 256 429.5 256 431.5 254.8 433 L246.25 433 M270 421.4 L269.7 421.4 Q266.5 421.4 264.25 419.15 262 416.9 262 413.7 262 410.5 264.25 408.25 266.5 406 269.7 406 L270 406 270 421.4"/>
    <path stroke="none" fill="#F3ECDC" d="M270 402 L200 402 200 400 270 400 270 402"/>
    <path stroke="none" fill="#C58F5C" d="M200 433 L246.25 433 254.8 433 270 433 270 440 Q238.25 432.8 200 440 L200 433"/>
    <path stroke="none" fill="#B18459" d="M270 440 L200 440 Q238.25 432.8 270 440"/>
    <path stroke="none" fill="#D6CDB3" d="M350 421.35 L349.7 421.35 Q346.5 421.35 344.25 419.1 342 416.85 342 413.65 342 410.5 344.25 408.25 346.15 406.35 348.8 406.05 349.6 407.55 349.85 409.65 L350 410.3 350 421.35 M280 406 Q283 406.1 285.15 408.25 287.4 410.5 287.4 413.65 287.4 416.85 285.15 419.1 283 421.25 280 421.35 L280 406 M336 429.4 Q336 431.7 334.4 433.3 332.75 434.9 330.5 434.9 328.2 434.9 326.6 433.3 325 431.7 325 429.4 325 427.15 326.6 425.55 328.2 423.95 330.5 423.95 332.75 423.95 334.4 425.55 336 427.15 336 429.4 M324 411.5 Q324 413.75 322.45 415.35 320.8 416.95 318.5 416.95 316.2 416.95 314.6 415.35 313 413.75 313 411.5 313 409.2 314.6 407.55 316.2 406 318.5 406 320.8 406 322.45 407.55 324 409.2 324 411.5 M303 424.95 Q303 426.6 301.85 427.75 300.65 428.9 299 428.9 297.3 428.9 296.2 427.75 295 426.6 295 424.95 295 423.3 296.2 422.1 297.3 420.95 299 420.95 300.65 420.95 301.85 422.1 303 423.3 303 424.95"/>
    <path stroke="none" fill="#E1D7BF" d="M303 424.95 Q303 423.3 301.85 422.1 300.65 420.95 299 420.95 297.3 420.95 296.2 422.1 295 423.3 295 424.95 295 426.6 296.2 427.75 297.3 428.9 299 428.9 300.65 428.9 301.85 427.75 303 426.6 303 424.95 M348.8 406.05 Q346.15 406.35 344.25 408.25 342 410.5 342 413.65 342 416.85 344.25 419.1 346.5 421.35 349.7 421.35 L350 421.35 350 430.9 349.8 433 349.75 433.2 349.15 435.25 348.35 436.8 348.25 436.9 348.05 437.15 347.05 438.15 346.55 438.5 345.9 438.9 331.5 436.9 330.45 436.8 323.45 435.75 Q309.6 433.05 280 433 L280 421.35 Q283 421.25 285.15 419.1 287.4 416.85 287.4 413.65 287.4 410.5 285.15 408.25 283 406.1 280 406 L280 402 340.35 402 Q346.6 402 348.8 406.05 M336 429.4 Q336 427.15 334.4 425.55 332.75 423.95 330.5 423.95 328.2 423.95 326.6 425.55 325 427.15 325 429.4 325 431.7 326.6 433.3 328.2 434.9 330.5 434.9 332.75 434.9 334.4 433.3 336 431.7 336 429.4 M324 411.5 Q324 409.2 322.45 407.55 320.8 406 318.5 406 316.2 406 314.6 407.55 313 409.2 313 411.5 313 413.75 314.6 415.35 316.2 416.95 318.5 416.95 320.8 416.95 322.45 415.35 324 413.75 324 411.5"/>
    <path stroke="none" fill="#F3ECDC" d="M349.85 409.65 Q349.6 407.55 348.8 406.05 346.6 402 340.35 402 L280 402 280 400 340.35 400 Q347.95 400 349.6 406 L350 409.2 350 409.65 349.85 409.65"/>
    <path stroke="none" fill="#93DB24" d="M349.85 409.65 L350 409.65 350 410.3 349.85 409.65"/>
    <path stroke="none" fill="#C58F5C" d="M280 433 Q309.6 433.05 323.45 435.75 L330.45 436.8 331.5 436.9 345.9 438.9 Q343.7 440 340.35 440 L280 440 280 433"/>
    <path stroke="none" fill="#F3ECDC" d="M40 329.65 L40 329.2 Q40.05 327.45 40.4 326.05 L40.4 326 Q42.05 320 49.65 320 L110 320 110 322 49.65 322 Q43.4 322 41.2 326.05 L41.2 326.15 Q40.4 327.6 40.15 329.65 L40 329.65"/>
    <path stroke="none" fill="#E1D7BF" d="M41.2 326.15 L41.2 326.05 Q43.4 322 49.65 322 L110 322 110 326 109.7 326 Q106.5 326 104.25 328.25 102 330.5 102 333.7 102 336.9 104.25 339.15 106.5 341.4 109.7 341.4 L110 341.4 110 357 50.85 357 Q44.45 357.35 42.35 355.3 L40.25 353.2 40.2 353 40 350.9 40 341.4 Q43 341.3 45.15 339.15 47.4 336.9 47.4 333.7 47.4 330.5 45.15 328.25 43.45 326.55 41.2 326.15 M94.4 345.6 Q92.75 344 90.5 344 88.2 344 86.6 345.6 85 347.25 85 349.5 85 351.8 86.6 353.4 88.2 355 90.5 355 92.75 355 94.4 353.4 96 351.8 96 349.5 96 347.25 94.4 345.6 M56.2 342.15 Q55 343.35 55 345 55 346.7 56.2 347.85 57.3 349 59 349 60.65 349 61.85 347.85 63 346.7 63 345 63 343.35 61.85 342.15 60.65 341 59 341 57.3 341 56.2 342.15 M78.5 326 Q76.2 326 74.6 327.55 73 329.2 73 331.5 73 333.8 74.6 335.4 76.2 337 78.5 337 80.8 337 82.45 335.4 84 333.8 84 331.5 84 329.2 82.45 327.55 80.8 326 78.5 326"/>
    <path stroke="none" fill="#D6CDB3" d="M78.5 326 Q80.8 326 82.45 327.55 84 329.2 84 331.5 84 333.8 82.45 335.4 80.8 337 78.5 337 76.2 337 74.6 335.4 73 333.8 73 331.5 73 329.2 74.6 327.55 76.2 326 78.5 326 M40.15 329.65 Q40.4 327.6 41.2 326.15 43.45 326.55 45.15 328.25 47.4 330.5 47.4 333.7 47.4 336.9 45.15 339.15 43 341.3 40 341.4 L40 330.3 Q40 330 40.15 329.65 M110 326 L110 341.4 109.7 341.4 Q106.5 341.4 104.25 339.15 102 336.9 102 333.7 102 330.5 104.25 328.25 106.5 326 109.7 326 L110 326 M94.4 345.6 Q96 347.25 96 349.5 96 351.8 94.4 353.4 92.75 355 90.5 355 88.2 355 86.6 353.4 85 351.8 85 349.5 85 347.25 86.6 345.6 88.2 344 90.5 344 92.75 344 94.4 345.6 M56.2 342.15 Q57.3 341 59 341 60.65 341 61.85 342.15 63 343.35 63 345 63 346.7 61.85 347.85 60.65 349 59 349 57.3 349 56.2 347.85 55 346.7 55 345 55 343.35 56.2 342.15"/>
    <path stroke="none" fill="#C58F5C" d="M110 357 L110 360 49.65 360 Q45.35 360 42.95 358.15 L41.95 357.15 41.75 356.9 41.65 356.8 40.85 355.25 40.25 353.2 42.35 355.3 Q44.45 357.35 50.85 357 L110 357"/>
    <path stroke="none" fill="#93DB24" d="M40 329.65 L40.15 329.65 Q40 330 40 330.3 L40 329.65"/>
    <path stroke="none" fill="#E1D7BF" d="M190 326 L189.7 326 Q186.5 326 184.25 328.25 182 330.5 182 333.7 182 336.9 184.25 339.15 186.5 341.4 189.7 341.4 L190 341.4 190 357 120 357 120 341.4 Q123 341.3 125.15 339.15 127.4 336.9 127.4 333.7 127.4 330.5 125.15 328.25 123 326.1 120 326 L120 322 190 322 190 326 M174.4 345.6 Q172.75 344 170.5 344 168.2 344 166.6 345.6 165 347.25 165 349.5 165 351.8 166.6 353.4 168.2 355 170.5 355 172.75 355 174.4 353.4 176 351.8 176 349.5 176 347.25 174.4 345.6 M136.2 342.15 Q135 343.35 135 345 135 346.7 136.2 347.85 137.3 349 139 349 140.65 349 141.85 347.85 143 346.7 143 345 143 343.35 141.85 342.15 140.65 341 139 341 137.3 341 136.2 342.15 M162.45 327.55 Q160.8 326 158.5 326 156.2 326 154.6 327.55 153 329.2 153 331.5 153 333.8 154.6 335.4 156.2 337 158.5 337 160.8 337 162.45 335.4 164 333.8 164 331.5 164 329.2 162.45 327.55"/>
    <path stroke="none" fill="#D6CDB3" d="M162.45 327.55 Q164 329.2 164 331.5 164 333.8 162.45 335.4 160.8 337 158.5 337 156.2 337 154.6 335.4 153 333.8 153 331.5 153 329.2 154.6 327.55 156.2 326 158.5 326 160.8 326 162.45 327.55 M190 341.4 L189.7 341.4 Q186.5 341.4 184.25 339.15 182 336.9 182 333.7 182 330.5 184.25 328.25 186.5 326 189.7 326 L190 326 190 341.4 M120 326 Q123 326.1 125.15 328.25 127.4 330.5 127.4 333.7 127.4 336.9 125.15 339.15 123 341.3 120 341.4 L120 326 M174.4 345.6 Q176 347.25 176 349.5 176 351.8 174.4 353.4 172.75 355 170.5 355 168.2 355 166.6 353.4 165 351.8 165 349.5 165 347.25 166.6 345.6 168.2 344 170.5 344 172.75 344 174.4 345.6 M136.2 342.15 Q137.3 341 139 341 140.65 341 141.85 342.15 143 343.35 143 345 143 346.7 141.85 347.85 140.65 349 139 349 137.3 349 136.2 347.85 135 346.7 135 345 135 343.35 136.2 342.15"/>
    <path stroke="none" fill="#F3ECDC" d="M190 322 L120 322 120 320 190 320 190 322"/>
    <path stroke="none" fill="#C58F5C" d="M120 357 L190 357 190 360 120 360 120 357"/>
    <path stroke="none" fill="#F3ECDC" d="M200 322 L200 320 270 320 270 322 200 322"/>
    <path stroke="none" fill="#E1D7BF" d="M200 322 L270 322 270 326 269.7 326 Q266.5 326 264.25 328.25 262 330.5 262 333.7 262 336.9 264.25 339.15 266.5 341.4 269.7 341.4 L270 341.4 270 357 Q261.55 355.25 253.2 354.35 L254.4 353.4 Q256 351.8 256 349.5 256 347.25 254.4 345.6 252.75 344 250.5 344 248.2 344 246.6 345.6 245 347.25 245 349.5 245 351.8 246.6 353.4 L247 353.75 Q223.2 352 200 357 L200 341.4 Q203 341.3 205.15 339.15 207.4 336.9 207.4 333.7 207.4 330.5 205.15 328.25 203 326.1 200 326 L200 322 M216.2 342.15 Q215 343.35 215 345 215 346.7 216.2 347.85 217.3 349 219 349 220.65 349 221.85 347.85 223 346.7 223 345 223 343.35 221.85 342.15 220.65 341 219 341 217.3 341 216.2 342.15 M242.45 327.55 Q240.8 326 238.5 326 236.2 326 234.6 327.55 233 329.2 233 331.5 233 333.8 234.6 335.4 236.2 337 238.5 337 240.8 337 242.45 335.4 244 333.8 244 331.5 244 329.2 242.45 327.55"/>
    <path stroke="none" fill="#D6CDB3" d="M242.45 327.55 Q244 329.2 244 331.5 244 333.8 242.45 335.4 240.8 337 238.5 337 236.2 337 234.6 335.4 233 333.8 233 331.5 233 329.2 234.6 327.55 236.2 326 238.5 326 240.8 326 242.45 327.55 M270 326 L270 341.4 269.7 341.4 Q266.5 341.4 264.25 339.15 262 336.9 262 333.7 262 330.5 264.25 328.25 266.5 326 269.7 326 L270 326 M200 341.4 L200 326 Q203 326.1 205.15 328.25 207.4 330.5 207.4 333.7 207.4 336.9 205.15 339.15 203 341.3 200 341.4 M247 353.75 L246.6 353.4 Q245 351.8 245 349.5 245 347.25 246.6 345.6 248.2 344 250.5 344 252.75 344 254.4 345.6 256 347.25 256 349.5 256 351.8 254.4 353.4 L253.2 354.35 247 353.75 M216.2 342.15 Q217.3 341 219 341 220.65 341 221.85 342.15 223 343.35 223 345 223 346.7 221.85 347.85 220.65 349 219 349 217.3 349 216.2 347.85 215 346.7 215 345 215 343.35 216.2 342.15"/>
    <path stroke="none" fill="#C58F5C" d="M270 357 L270 360 200 360 200 357 Q223.2 352 247 353.75 L253.2 354.35 Q261.55 355.25 270 357"/>
    <path stroke="none" fill="#93DB24" d="M350 330.3 L349.85 329.65 350 329.65 350 330.3"/>
    <path stroke="none" fill="#D6CDB3" d="M350 330.3 L350 341.35 349.7 341.35 Q346.5 341.35 344.25 339.1 342 336.85 342 333.65 342 330.5 344.25 328.25 346.15 326.35 348.8 326.05 349.6 327.55 349.85 329.65 L350 330.3 M280 326 Q283 326.1 285.15 328.25 287.4 330.5 287.4 333.65 287.4 336.85 285.15 339.1 283 341.25 280 341.35 L280 326 M334.4 345.55 Q336 347.15 336 349.4 336 351.7 334.4 353.3 332.75 354.9 330.5 354.9 328.2 354.9 326.6 353.3 325 351.7 325 349.4 325 347.15 326.6 345.55 328.2 343.95 330.5 343.95 332.75 343.95 334.4 345.55 M318.5 336.95 Q316.2 336.95 314.6 335.35 313 333.75 313 331.5 313 329.2 314.6 327.55 316.2 326 318.5 326 320.8 326 322.45 327.55 324 329.2 324 331.5 324 333.75 322.45 335.35 320.8 336.95 318.5 336.95 M296.2 342.1 Q297.3 340.95 299 340.95 300.65 340.95 301.85 342.1 303 343.3 303 344.95 303 346.6 301.85 347.75 300.65 348.9 299 348.9 297.3 348.9 296.2 347.75 295 346.6 295 344.95 295 343.3 296.2 342.1"/>
    <path stroke="none" fill="#F3ECDC" d="M350 329.65 L349.85 329.65 Q349.6 327.55 348.8 326.05 346.6 322 340.35 322 L280 322 280 320 340.35 320 Q347.95 320 349.6 326 L350 329.2 350 329.65"/>
    <path stroke="none" fill="#E1D7BF" d="M348.8 326.05 Q346.15 326.35 344.25 328.25 342 330.5 342 333.65 342 336.85 344.25 339.1 346.5 341.35 349.7 341.35 L350 341.35 350 350.9 349.8 353 349.75 353.2 347.65 355.3 Q345.55 357.35 339.15 357 L280 357 280 341.35 Q283 341.25 285.15 339.1 287.4 336.85 287.4 333.65 287.4 330.5 285.15 328.25 283 326.1 280 326 L280 322 340.35 322 Q346.6 322 348.8 326.05 M334.4 345.55 Q332.75 343.95 330.5 343.95 328.2 343.95 326.6 345.55 325 347.15 325 349.4 325 351.7 326.6 353.3 328.2 354.9 330.5 354.9 332.75 354.9 334.4 353.3 336 351.7 336 349.4 336 347.15 334.4 345.55 M296.2 342.1 Q295 343.3 295 344.95 295 346.6 296.2 347.75 297.3 348.9 299 348.9 300.65 348.9 301.85 347.75 303 346.6 303 344.95 303 343.3 301.85 342.1 300.65 340.95 299 340.95 297.3 340.95 296.2 342.1 M318.5 336.95 Q320.8 336.95 322.45 335.35 324 333.75 324 331.5 324 329.2 322.45 327.55 320.8 326 318.5 326 316.2 326 314.6 327.55 313 329.2 313 331.5 313 333.75 314.6 335.35 316.2 336.95 318.5 336.95"/>
    <path stroke="none" fill="#C58F5C" d="M280 357 L339.15 357 Q345.55 357.35 347.65 355.3 L349.75 353.2 349.15 355.25 348.35 356.8 348.25 356.9 348.05 357.15 347.05 358.15 Q344.65 360 340.35 360 L280 360 280 357"/>
    <path stroke="none" fill="#E1D7BF" d="M580.8 320 Q582.4 324.4 577.45 325.1 571.7 329.5 571 337.2 L571 390 540 390 540 337.2 Q539.3 329.5 533.55 325.1 528.6 324.4 530.2 320 L580.8 320 M560.15 358.75 Q558.9 358.75 557.95 359.55 557.15 360.5 557.15 361.7 557.15 362.95 557.95 363.75 558.9 364.6 560.15 364.6 561.35 364.6 562.15 363.75 563.05 362.95 563.05 361.7 563.05 360.5 562.15 359.55 561.35 358.75 560.15 358.75 M553.25 350.05 Q552.5 350.05 551.95 350.45 551.45 351 551.45 351.75 551.45 352.5 551.95 352.95 552.5 353.5 553.25 353.5 553.95 353.5 554.45 352.95 555 352.5 555 351.75 555 351 554.45 350.45 553.95 350.05 553.25 350.05 M565.9 334.6 Q566.75 333.65 566.75 332.4 566.75 331.1 565.9 330.2 564.95 329.25 563.65 329.25 562.35 329.25 561.5 330.2 560.55 331.1 560.55 332.4 560.55 333.65 561.5 334.6 562.35 335.5 563.65 335.5 564.95 335.5 565.9 334.6"/>
    <path stroke="none" fill="#D6CDB3" d="M565.9 334.6 Q564.95 335.5 563.65 335.5 562.35 335.5 561.5 334.6 560.55 333.65 560.55 332.4 560.55 331.1 561.5 330.2 562.35 329.25 563.65 329.25 564.95 329.25 565.9 330.2 566.75 331.1 566.75 332.4 566.75 333.65 565.9 334.6 M553.25 350.05 Q553.95 350.05 554.45 350.45 555 351 555 351.75 555 352.5 554.45 352.95 553.95 353.5 553.25 353.5 552.5 353.5 551.95 352.95 551.45 352.5 551.45 351.75 551.45 351 551.95 350.45 552.5 350.05 553.25 350.05 M560.15 358.75 Q561.35 358.75 562.15 359.55 563.05 360.5 563.05 361.7 563.05 362.95 562.15 363.75 561.35 364.6 560.15 364.6 558.9 364.6 557.95 363.75 557.15 362.95 557.15 361.7 557.15 360.5 557.95 359.55 558.9 358.75 560.15 358.75"/>
    <path stroke="none" fill="#E1D7BF" d="M467.45 460.65 L467.45 458.1 473.55 458.3 479.65 458.1 479.65 460.65 473.55 460.85 467.45 460.65"/>
    <path stroke="none" fill="#BD8853" d="M454.15 454.35 L454.05 453.85 454.05 453.8 Q454.2 448.15 459.75 444.1 465.5 440 473.55 440 481.65 440 487.35 444.1 492.9 448.15 493.05 453.8 L493.05 453.85 492.95 454.35 Q492.3 449.45 487.35 445.85 481.65 441.75 473.55 441.75 465.5 441.75 459.75 445.85 454.8 449.45 454.15 454.35"/>
    <path stroke="none" fill="#A06D3D" d="M454.15 454.35 Q454.8 449.45 459.75 445.85 465.5 441.75 473.55 441.75 481.65 441.75 487.35 445.85 492.3 449.45 492.95 454.35 492.3 455.9 487.35 457 L479.65 458.1 473.55 458.3 467.45 458.1 459.75 457 Q454.8 455.9 454.15 454.35"/>
    <path stroke="none" fill="#EFEBDC" d="M479.65 460.65 L479.65 470 467.45 470 467.45 460.65 473.55 460.85 479.65 460.65"/>
    <path stroke="none" fill="#BD8853" d="M692.8 439.75 L692.65 439.55 692.55 439.15 Q692.7 435 698.8 432 705.1 429 713.95 429 722.85 429 729.1 432 735.2 435 735.4 439.15 L735.25 439.55 735.15 439.75 Q734.05 436.55 729.1 434.1 722.85 431.1 713.95 431.1 705.1 431.1 698.8 434.1 693.85 436.55 692.8 439.75"/>
    <path stroke="none" fill="#A06D3D" d="M692.8 439.75 Q693.85 436.55 698.8 434.1 705.1 431.1 713.95 431.1 722.85 431.1 729.1 434.1 734.05 436.55 735.15 439.75 734.15 440.7 729.1 441.5 L720.65 442.3 718.05 442.4 713.95 442.45 709 442.4 707.25 442.3 698.8 441.5 Q693.85 440.75 692.8 439.75"/>
    <path stroke="none" fill="#EFEBDC" d="M718.15 444.9 L719.65 470 707.45 470 708.9 444.65 708.9 444.9 712.3 445.2 713.55 445.2 714.75 445.2 718.15 444.9"/>
    <path stroke="none" fill="#E1D7BF" d="M718.15 444.9 L714.75 445.2 713.55 445.2 712.3 445.2 708.9 444.9 708.9 444.65 709 442.4 713.95 442.45 718.05 442.4 718.15 444.9"/>
    <path stroke="none" fill="#E1D7BF" d="M772.8 439.75 L772.65 439.55 772.55 439.15 Q772.7 435 778.8 432 785.1 429 793.95 429 802.85 429 809.1 432 815.2 435 815.4 439.15 L815.25 439.55 815.15 439.75 Q814.05 436.55 809.1 434.1 802.85 431.1 793.95 431.1 785.1 431.1 778.8 434.1 773.85 436.55 772.8 439.75 M798.05 442.4 L798.15 444.9 794.75 445.2 793.55 445.2 792.3 445.2 788.95 444.9 788.9 444.9 789 442.4 793.95 442.45 798.05 442.4"/>
    <path stroke="none" fill="#D6CDB3" d="M798.05 442.4 L793.95 442.45 789 442.4 787.25 442.3 778.8 441.5 Q773.85 440.75 772.8 439.75 773.85 436.55 778.8 434.1 785.1 431.1 793.95 431.1 802.85 431.1 809.1 434.1 814.05 436.55 815.15 439.75 814.15 440.7 809.1 441.5 L800.65 442.3 798.05 442.4"/>
    <path stroke="none" fill="#EFEBDC" d="M798.15 444.9 Q795.75 458.4 799.65 470 L787.45 470 Q790.85 458.35 788.95 444.9 L792.3 445.2 793.55 445.2 794.75 445.2 798.15 444.9"/>
    <path stroke="none" fill="#EF975C" d="M612.8 439.75 L612.65 439.55 612.55 439.15 Q612.7 435 618.8 432 625.1 429 633.95 429 642.85 429 649.1 432 655.2 435 655.4 439.15 L655.25 439.55 655.15 439.75 Q654.05 436.55 649.1 434.1 644.9 432.1 639.5 431.45 L633.95 431.1 633.85 431.1 Q625.05 431.1 618.8 434.1 L617.75 434.7 Q615.6 435.85 614.35 437.2 613.25 438.4 612.8 439.75"/>
    <path stroke="none" fill="#E86A17" d="M612.8 439.75 Q613.25 438.4 614.35 437.2 614.45 438.05 615.05 438.65 615.8 439.4 616.8 439.4 617.8 439.4 618.5 438.65 619.25 437.95 619.25 436.95 619.25 435.95 618.5 435.2 L617.75 434.7 618.8 434.1 Q625.05 431.1 633.85 431.1 L633.8 431.15 Q632.7 432.3 632.7 433.9 632.7 435.5 633.8 436.6 634.95 437.75 636.55 437.75 638.15 437.75 639.25 436.6 640.4 435.5 640.4 433.9 640.4 432.5 639.5 431.45 644.9 432.1 649.1 434.1 654.05 436.55 655.15 439.75 654.3 440.55 650.45 441.3 650.85 440.7 650.85 439.95 650.85 438.95 650.1 438.2 649.4 437.5 648.4 437.5 647.4 437.5 646.65 438.2 645.95 438.95 645.95 439.95 645.95 440.95 646.65 441.65 L646.8 441.8 640.65 442.3 638.05 442.4 633.95 442.45 629 442.4 627.25 442.3 618.8 441.5 Q613.85 440.75 612.8 439.75 M627.05 435.35 Q625.9 435.35 625.1 436.15 624.3 436.95 624.3 438.1 624.3 439.25 625.1 440.05 625.9 440.85 627.05 440.85 628.2 440.85 629 440.05 629.8 439.25 629.8 438.1 629.8 436.95 629 436.15 628.2 435.35 627.05 435.35"/>
    <path stroke="none" fill="#FCA66C" d="M627.05 435.35 Q628.2 435.35 629 436.15 629.8 436.95 629.8 438.1 629.8 439.25 629 440.05 628.2 440.85 627.05 440.85 625.9 440.85 625.1 440.05 624.3 439.25 624.3 438.1 624.3 436.95 625.1 436.15 625.9 435.35 627.05 435.35 M650.45 441.3 L649.1 441.5 646.8 441.8 646.65 441.65 Q645.95 440.95 645.95 439.95 645.95 438.95 646.65 438.2 647.4 437.5 648.4 437.5 649.4 437.5 650.1 438.2 650.85 438.95 650.85 439.95 650.85 440.7 650.45 441.3 M614.35 437.2 Q615.6 435.85 617.75 434.7 L618.5 435.2 Q619.25 435.95 619.25 436.95 619.25 437.95 618.5 438.65 617.8 439.4 616.8 439.4 615.8 439.4 615.05 438.65 614.45 438.05 614.35 437.2 M633.85 431.1 L633.95 431.1 639.5 431.45 Q640.4 432.5 640.4 433.9 640.4 435.5 639.25 436.6 638.15 437.75 636.55 437.75 634.95 437.75 633.8 436.6 632.7 435.5 632.7 433.9 632.7 432.3 633.8 431.15 L633.85 431.1"/>
    <path stroke="none" fill="#EFEBDC" d="M638.15 444.9 L639.65 470 627.45 470 628.9 444.65 628.9 444.9 632.3 445.2 633.55 445.2 634.75 445.2 638.15 444.9"/>
    <path stroke="none" fill="#E1D7BF" d="M638.15 444.9 L634.75 445.2 633.55 445.2 632.3 445.2 628.9 444.9 628.9 444.65 629 442.4 633.95 442.45 638.05 442.4 638.15 444.9"/>
    <path stroke="none" fill="#E1D7BF" d="M534.15 454.35 L534.05 453.85 534.05 453.8 Q534.2 448.15 539.75 444.1 545.5 440 553.55 440 561.65 440 567.35 444.1 570.55 446.45 571.95 449.3 573 451.4 573.05 453.8 L573.05 453.85 572.95 454.35 Q572.7 452.6 571.95 451.05 570.55 448.2 567.35 445.85 561.65 441.75 553.55 441.75 545.5 441.75 539.75 445.85 534.8 449.45 534.15 454.35 M559.65 458.1 L559.65 460.65 553.55 460.85 547.45 460.65 547.45 458.1 553.55 458.3 559.65 458.1"/>
    <path stroke="none" fill="#D6CDB3" d="M559.65 458.1 L553.55 458.3 547.45 458.1 539.75 457 Q534.8 455.9 534.15 454.35 534.8 449.45 539.75 445.85 545.5 441.75 553.55 441.75 561.65 441.75 567.35 445.85 570.55 448.2 571.95 451.05 572.7 452.6 572.95 454.35 L571.95 455.4 Q570.55 456.3 567.35 457 L559.65 458.1"/>
    <path stroke="none" fill="#EFEBDC" d="M559.65 460.65 L559.65 470 547.45 470 547.45 460.65 553.55 460.85 559.65 460.65"/>
    <path stroke="none" fill="#90D228" d="M1026.95 278.45 L1026.95 278.1 1026.95 277.45 1026.95 277.1 Q1026.95 267.5 1033.7 260.75 1037.35 257.15 1041.75 255.45 L1041.75 255.25 1041.75 254.6 Q1041.75 250.05 1044.95 246.8 1048.25 243.55 1052.8 243.55 1055.2 243.55 1057.2 244.4 L1057.9 243.7 Q1060.2 241.4 1062.85 239.95 1063.75 232.95 1069 227.7 1074.75 221.9 1082.75 221.45 1084.15 217.15 1087.6 213.7 1093.45 207.85 1101.75 207.85 1108.2 207.85 1113.2 211.4 1119 208.7 1125.9 208.7 1134.7 208.7 1141.65 213.1 1144.7 210.7 1148.75 210.7 1153.6 210.7 1157.05 214.15 1158.75 215.9 1159.65 217.95 1163.7 216.2 1168.5 216.2 1177.85 216.2 1184.45 222.85 L1186.9 225.65 Q1191.35 223.9 1196.5 223.9 1207.1 223.9 1214.55 231.35 1221.2 238 1221.95 247.1 1229.5 248.55 1235.3 254.3 1242.95 262 1242.95 272.8 L1242.95 273.05 1242.95 273.35 1242.95 273.8 1242.95 274.05 Q1242.7 263.75 1235.3 256.3 1229.5 250.55 1221.95 249.1 1221.2 240 1214.55 233.35 1207.1 225.9 1196.5 225.9 1191.35 225.9 1186.9 227.65 L1184.45 224.85 Q1177.85 218.2 1168.5 218.2 1163.7 218.2 1159.65 219.95 1158.75 217.9 1157.05 216.15 1153.6 212.7 1148.75 212.7 1144.7 212.7 1141.65 215.1 1134.7 210.7 1125.9 210.7 1119 210.7 1113.2 213.4 1108.2 209.85 1101.75 209.85 1093.45 209.85 1087.6 215.7 1084.15 219.15 1082.75 223.45 1074.75 223.9 1069 229.7 1063.75 234.95 1062.85 241.95 1060.2 243.4 1057.9 245.7 L1057.2 246.4 Q1055.2 245.55 1052.8 245.55 1048.25 245.55 1044.95 248.8 1041.75 252.05 1041.75 256.6 L1041.75 257.45 Q1037.35 259.15 1033.7 262.75 1027.2 269.25 1026.95 278.45"/>
    <path stroke="none" fill="#80BE1F" d="M1026.95 278.45 Q1027.2 269.25 1033.7 262.75 1037.35 259.15 1041.75 257.45 L1041.75 256.6 Q1041.75 252.05 1044.95 248.8 1048.25 245.55 1052.8 245.55 1055.2 245.55 1057.2 246.4 L1057.9 245.7 Q1060.2 243.4 1062.85 241.95 1063.75 234.95 1069 229.7 1074.75 223.9 1082.75 223.45 1084.15 219.15 1087.6 215.7 1093.45 209.85 1101.75 209.85 1108.2 209.85 1113.2 213.4 1119 210.7 1125.9 210.7 1134.7 210.7 1141.65 215.1 1144.7 212.7 1148.75 212.7 1153.6 212.7 1157.05 216.15 1158.75 217.9 1159.65 219.95 1163.7 218.2 1168.5 218.2 1177.85 218.2 1184.45 224.85 L1186.9 227.65 Q1191.35 225.9 1196.5 225.9 1207.1 225.9 1214.55 233.35 1221.2 240 1221.95 249.1 1229.5 250.55 1235.3 256.3 1242.7 263.75 1242.95 274.05 L1242.95 274.3 1242.95 274.8 Q1242.95 277.5 1242.5 280 L1027 280 1026.95 279.1 1026.95 278.45"/>
  </g>
</svg>